<?xml version="1.0" encoding="utf-8" standalone="no"?>
<!DOCTYPE svg PUBLIC "-//W3C//DTD SVG 1.1//EN"
  "http://www.w3.org/Graphics/SVG/1.1/DTD/svg11.dtd">
<svg xmlns:xlink="http://www.w3.org/1999/xlink" width="1152pt" height="648pt" viewBox="0 0 1152 648" xmlns="http://www.w3.org/2000/svg" version="1.1">
 <metadata>
  <rdf:RDF xmlns:dc="http://purl.org/dc/elements/1.1/" xmlns:cc="http://creativecommons.org/ns#" xmlns:rdf="http://www.w3.org/1999/02/22-rdf-syntax-ns#">
   <cc:Work>
    <dc:type rdf:resource="http://purl.org/dc/dcmitype/StillImage"/>
    <dc:date>2025-06-10T13:11:57.501059</dc:date>
    <dc:format>image/svg+xml</dc:format>
    <dc:creator>
     <cc:Agent>
      <dc:title>Matplotlib v3.10.3, https://matplotlib.org/</dc:title>
     </cc:Agent>
    </dc:creator>
   </cc:Work>
  </rdf:RDF>
 </metadata>
 <defs>
  <style type="text/css">*{stroke-linejoin: round; stroke-linecap: butt}</style>
 </defs>
 <g id="figure_1">
  <g id="patch_1">
   <path d="M 0 648 
L 1152 648 
L 1152 0 
L 0 0 
z
" style="fill: #ffffff"/>
  </g>
  <g id="axes_1">
   <g id="patch_2">
    <path d="M 317.68 572.776 
L 1116.869609 572.776 
L 1116.869609 10.8 
L 317.68 10.8 
z
" style="fill: #ffffff"/>
   </g>
   <g id="patch_3">
    <path d="M -132614.19166 569.533831 
L 675.912063 569.533831 
L 675.912063 532.789246 
L -132614.19166 532.789246 
z
" clip-path="url(#p6fd185ee39)" style="fill: #4878d0"/>
   </g>
   <g id="patch_4">
    <path d="M -132614.19166 526.304908 
L 799.933843 526.304908 
L 799.933843 489.560323 
L -132614.19166 489.560323 
z
" clip-path="url(#p6fd185ee39)" style="fill: #4878d0"/>
   </g>
   <g id="patch_5">
    <path d="M -132614.19166 483.075985 
L 849.444858 483.075985 
L 849.444858 446.3314 
L -132614.19166 446.3314 
z
" clip-path="url(#p6fd185ee39)" style="fill: #4878d0"/>
   </g>
   <g id="patch_6">
    <path d="M -132614.19166 439.847062 
L 817.727692 439.847062 
L 817.727692 403.102477 
L -132614.19166 403.102477 
z
" clip-path="url(#p6fd185ee39)" style="fill: #4878d0"/>
   </g>
   <g id="patch_7">
    <path d="M -132614.19166 396.618138 
L 875.646579 396.618138 
L 875.646579 359.873554 
L -132614.19166 359.873554 
z
" clip-path="url(#p6fd185ee39)" style="fill: #4878d0"/>
   </g>
   <g id="patch_8">
    <path d="M -132614.19166 353.389215 
L 716.29465 353.389215 
L 716.29465 316.644631 
L -132614.19166 316.644631 
z
" clip-path="url(#p6fd185ee39)" style="fill: #4878d0"/>
   </g>
   <g id="patch_9">
    <path d="M -132614.19166 310.160292 
L 908.044265 310.160292 
L 908.044265 273.415708 
L -132614.19166 273.415708 
z
" clip-path="url(#p6fd185ee39)" style="fill: #4878d0"/>
   </g>
   <g id="patch_10">
    <path d="M -132614.19166 266.931369 
L 891.642547 266.931369 
L 891.642547 230.186785 
L -132614.19166 230.186785 
z
" clip-path="url(#p6fd185ee39)" style="fill: #4878d0"/>
   </g>
   <g id="patch_11">
    <path d="M -132614.19166 223.702446 
L 858.116308 223.702446 
L 858.116308 186.957862 
L -132614.19166 186.957862 
z
" clip-path="url(#p6fd185ee39)" style="fill: #4878d0"/>
   </g>
   <g id="patch_12">
    <path d="M -132614.19166 180.473523 
L 817.907991 180.473523 
L 817.907991 143.728938 
L -132614.19166 143.728938 
z
" clip-path="url(#p6fd185ee39)" style="fill: #4878d0"/>
   </g>
   <g id="patch_13">
    <path d="M -132614.19166 137.2446 
L 824.662199 137.2446 
L 824.662199 100.500015 
L -132614.19166 100.500015 
z
" clip-path="url(#p6fd185ee39)" style="fill: #4878d0"/>
   </g>
   <g id="patch_14">
    <path d="M -132614.19166 94.015677 
L 808.287067 94.015677 
L 808.287067 57.271092 
L -132614.19166 57.271092 
z
" clip-path="url(#p6fd185ee39)" style="fill: #4878d0"/>
   </g>
   <g id="patch_15">
    <path d="M -132614.19166 50.786754 
L 837.295944 50.786754 
L 837.295944 14.042169 
L -132614.19166 14.042169 
z
" clip-path="url(#p6fd185ee39)" style="fill: #4878d0"/>
   </g>
   <g id="matplotlib.axis_1">
    <g id="xtick_1">
     <g id="line2d_1">
      <path d="M 317.68 572.776 
L 317.68 10.8 
" clip-path="url(#p6fd185ee39)" style="fill: none; stroke-dasharray: 1.85,0.8; stroke-dashoffset: 0; stroke: #b0b0b0; stroke-opacity: 0.7; stroke-width: 0.5"/>
     </g>
     <g id="line2d_2">
      <defs>
       <path id="m2531f0b7b7" d="M 0 0 
L 0 3.5 
" style="stroke: #000000; stroke-width: 0.8"/>
      </defs>
      <g>
       <use xlink:href="#m2531f0b7b7" x="317.68" y="572.776" style="stroke: #000000; stroke-width: 0.8"/>
      </g>
     </g>
     <g id="text_1">
      <!-- $\mathdefault{10^{-2}}$ -->
      <g transform="translate(284.78 601.051625) scale(0.28 -0.28)">
       <defs>
        <path id="DejaVuSans-31" d="M 794 531 
L 1825 531 
L 1825 4091 
L 703 3866 
L 703 4441 
L 1819 4666 
L 2450 4666 
L 2450 531 
L 3481 531 
L 3481 0 
L 794 0 
L 794 531 
z
" transform="scale(0.015625)"/>
        <path id="DejaVuSans-30" d="M 2034 4250 
Q 1547 4250 1301 3770 
Q 1056 3291 1056 2328 
Q 1056 1369 1301 889 
Q 1547 409 2034 409 
Q 2525 409 2770 889 
Q 3016 1369 3016 2328 
Q 3016 3291 2770 3770 
Q 2525 4250 2034 4250 
z
M 2034 4750 
Q 2819 4750 3233 4129 
Q 3647 3509 3647 2328 
Q 3647 1150 3233 529 
Q 2819 -91 2034 -91 
Q 1250 -91 836 529 
Q 422 1150 422 2328 
Q 422 3509 836 4129 
Q 1250 4750 2034 4750 
z
" transform="scale(0.015625)"/>
        <path id="DejaVuSans-2212" d="M 678 2272 
L 4684 2272 
L 4684 1741 
L 678 1741 
L 678 2272 
z
" transform="scale(0.015625)"/>
        <path id="DejaVuSans-32" d="M 1228 531 
L 3431 531 
L 3431 0 
L 469 0 
L 469 531 
Q 828 903 1448 1529 
Q 2069 2156 2228 2338 
Q 2531 2678 2651 2914 
Q 2772 3150 2772 3378 
Q 2772 3750 2511 3984 
Q 2250 4219 1831 4219 
Q 1534 4219 1204 4116 
Q 875 4013 500 3803 
L 500 4441 
Q 881 4594 1212 4672 
Q 1544 4750 1819 4750 
Q 2544 4750 2975 4387 
Q 3406 4025 3406 3419 
Q 3406 3131 3298 2873 
Q 3191 2616 2906 2266 
Q 2828 2175 2409 1742 
Q 1991 1309 1228 531 
z
" transform="scale(0.015625)"/>
       </defs>
       <use xlink:href="#DejaVuSans-31" transform="translate(0 0.765625)"/>
       <use xlink:href="#DejaVuSans-30" transform="translate(63.623047 0.765625)"/>
       <use xlink:href="#DejaVuSans-2212" transform="translate(128.203125 39.046875) scale(0.7)"/>
       <use xlink:href="#DejaVuSans-32" transform="translate(186.855469 39.046875) scale(0.7)"/>
      </g>
     </g>
    </g>
    <g id="xtick_2">
     <g id="line2d_3">
      <path d="M 450.878268 572.776 
L 450.878268 10.8 
" clip-path="url(#p6fd185ee39)" style="fill: none; stroke-dasharray: 1.85,0.8; stroke-dashoffset: 0; stroke: #b0b0b0; stroke-opacity: 0.7; stroke-width: 0.5"/>
     </g>
     <g id="line2d_4">
      <g>
       <use xlink:href="#m2531f0b7b7" x="450.878268" y="572.776" style="stroke: #000000; stroke-width: 0.8"/>
      </g>
     </g>
     <g id="text_2">
      <!-- $\mathdefault{10^{-1}}$ -->
      <g transform="translate(417.978268 601.051625) scale(0.28 -0.28)">
       <use xlink:href="#DejaVuSans-31" transform="translate(0 0.684375)"/>
       <use xlink:href="#DejaVuSans-30" transform="translate(63.623047 0.684375)"/>
       <use xlink:href="#DejaVuSans-2212" transform="translate(128.203125 38.965625) scale(0.7)"/>
       <use xlink:href="#DejaVuSans-31" transform="translate(186.855469 38.965625) scale(0.7)"/>
      </g>
     </g>
    </g>
    <g id="xtick_3">
     <g id="line2d_5">
      <path d="M 584.076536 572.776 
L 584.076536 10.8 
" clip-path="url(#p6fd185ee39)" style="fill: none; stroke-dasharray: 1.85,0.8; stroke-dashoffset: 0; stroke: #b0b0b0; stroke-opacity: 0.7; stroke-width: 0.5"/>
     </g>
     <g id="line2d_6">
      <g>
       <use xlink:href="#m2531f0b7b7" x="584.076536" y="572.776" style="stroke: #000000; stroke-width: 0.8"/>
      </g>
     </g>
     <g id="text_3">
      <!-- $\mathdefault{10^{0}}$ -->
      <g transform="translate(559.436536 601.051625) scale(0.28 -0.28)">
       <use xlink:href="#DejaVuSans-31" transform="translate(0 0.765625)"/>
       <use xlink:href="#DejaVuSans-30" transform="translate(63.623047 0.765625)"/>
       <use xlink:href="#DejaVuSans-30" transform="translate(128.203125 39.046875) scale(0.7)"/>
      </g>
     </g>
    </g>
    <g id="xtick_4">
     <g id="line2d_7">
      <path d="M 717.274805 572.776 
L 717.274805 10.8 
" clip-path="url(#p6fd185ee39)" style="fill: none; stroke-dasharray: 1.85,0.8; stroke-dashoffset: 0; stroke: #b0b0b0; stroke-opacity: 0.7; stroke-width: 0.5"/>
     </g>
     <g id="line2d_8">
      <g>
       <use xlink:href="#m2531f0b7b7" x="717.274805" y="572.776" style="stroke: #000000; stroke-width: 0.8"/>
      </g>
     </g>
     <g id="text_4">
      <!-- $\mathdefault{10^{1}}$ -->
      <g transform="translate(692.634805 601.051625) scale(0.28 -0.28)">
       <use xlink:href="#DejaVuSans-31" transform="translate(0 0.684375)"/>
       <use xlink:href="#DejaVuSans-30" transform="translate(63.623047 0.684375)"/>
       <use xlink:href="#DejaVuSans-31" transform="translate(128.203125 38.965625) scale(0.7)"/>
      </g>
     </g>
    </g>
    <g id="xtick_5">
     <g id="line2d_9">
      <path d="M 850.473073 572.776 
L 850.473073 10.8 
" clip-path="url(#p6fd185ee39)" style="fill: none; stroke-dasharray: 1.85,0.8; stroke-dashoffset: 0; stroke: #b0b0b0; stroke-opacity: 0.7; stroke-width: 0.5"/>
     </g>
     <g id="line2d_10">
      <g>
       <use xlink:href="#m2531f0b7b7" x="850.473073" y="572.776" style="stroke: #000000; stroke-width: 0.8"/>
      </g>
     </g>
     <g id="text_5">
      <!-- $\mathdefault{10^{2}}$ -->
      <g transform="translate(825.833073 601.051625) scale(0.28 -0.28)">
       <use xlink:href="#DejaVuSans-31" transform="translate(0 0.765625)"/>
       <use xlink:href="#DejaVuSans-30" transform="translate(63.623047 0.765625)"/>
       <use xlink:href="#DejaVuSans-32" transform="translate(128.203125 39.046875) scale(0.7)"/>
      </g>
     </g>
    </g>
    <g id="xtick_6">
     <g id="line2d_11">
      <path d="M 983.671341 572.776 
L 983.671341 10.8 
" clip-path="url(#p6fd185ee39)" style="fill: none; stroke-dasharray: 1.85,0.8; stroke-dashoffset: 0; stroke: #b0b0b0; stroke-opacity: 0.7; stroke-width: 0.5"/>
     </g>
     <g id="line2d_12">
      <g>
       <use xlink:href="#m2531f0b7b7" x="983.671341" y="572.776" style="stroke: #000000; stroke-width: 0.8"/>
      </g>
     </g>
     <g id="text_6">
      <!-- $\mathdefault{10^{3}}$ -->
      <g transform="translate(959.031341 601.051625) scale(0.28 -0.28)">
       <defs>
        <path id="DejaVuSans-33" d="M 2597 2516 
Q 3050 2419 3304 2112 
Q 3559 1806 3559 1356 
Q 3559 666 3084 287 
Q 2609 -91 1734 -91 
Q 1441 -91 1130 -33 
Q 819 25 488 141 
L 488 750 
Q 750 597 1062 519 
Q 1375 441 1716 441 
Q 2309 441 2620 675 
Q 2931 909 2931 1356 
Q 2931 1769 2642 2001 
Q 2353 2234 1838 2234 
L 1294 2234 
L 1294 2753 
L 1863 2753 
Q 2328 2753 2575 2939 
Q 2822 3125 2822 3475 
Q 2822 3834 2567 4026 
Q 2313 4219 1838 4219 
Q 1578 4219 1281 4162 
Q 984 4106 628 3988 
L 628 4550 
Q 988 4650 1302 4700 
Q 1616 4750 1894 4750 
Q 2613 4750 3031 4423 
Q 3450 4097 3450 3541 
Q 3450 3153 3228 2886 
Q 3006 2619 2597 2516 
z
" transform="scale(0.015625)"/>
       </defs>
       <use xlink:href="#DejaVuSans-31" transform="translate(0 0.765625)"/>
       <use xlink:href="#DejaVuSans-30" transform="translate(63.623047 0.765625)"/>
       <use xlink:href="#DejaVuSans-33" transform="translate(128.203125 39.046875) scale(0.7)"/>
      </g>
     </g>
    </g>
    <g id="xtick_7">
     <g id="line2d_13">
      <path d="M 1116.869609 572.776 
L 1116.869609 10.8 
" clip-path="url(#p6fd185ee39)" style="fill: none; stroke-dasharray: 1.85,0.8; stroke-dashoffset: 0; stroke: #b0b0b0; stroke-opacity: 0.7; stroke-width: 0.5"/>
     </g>
     <g id="line2d_14">
      <g>
       <use xlink:href="#m2531f0b7b7" x="1116.869609" y="572.776" style="stroke: #000000; stroke-width: 0.8"/>
      </g>
     </g>
     <g id="text_7">
      <!-- $\mathdefault{10^{4}}$ -->
      <g transform="translate(1092.229609 601.051625) scale(0.28 -0.28)">
       <defs>
        <path id="DejaVuSans-34" d="M 2419 4116 
L 825 1625 
L 2419 1625 
L 2419 4116 
z
M 2253 4666 
L 3047 4666 
L 3047 1625 
L 3713 1625 
L 3713 1100 
L 3047 1100 
L 3047 0 
L 2419 0 
L 2419 1100 
L 313 1100 
L 313 1709 
L 2253 4666 
z
" transform="scale(0.015625)"/>
       </defs>
       <use xlink:href="#DejaVuSans-31" transform="translate(0 0.684375)"/>
       <use xlink:href="#DejaVuSans-30" transform="translate(63.623047 0.684375)"/>
       <use xlink:href="#DejaVuSans-34" transform="translate(128.203125 38.965625) scale(0.7)"/>
      </g>
     </g>
    </g>
    <g id="xtick_8">
     <g id="line2d_15">
      <defs>
       <path id="mac8210ebc7" d="M 0 0 
L 0 2 
" style="stroke: #000000; stroke-width: 0.6"/>
      </defs>
      <g>
       <use xlink:href="#mac8210ebc7" x="357.776674" y="572.776" style="stroke: #000000; stroke-width: 0.6"/>
      </g>
     </g>
    </g>
    <g id="xtick_9">
     <g id="line2d_16">
      <g>
       <use xlink:href="#mac8210ebc7" x="381.231725" y="572.776" style="stroke: #000000; stroke-width: 0.6"/>
      </g>
     </g>
    </g>
    <g id="xtick_10">
     <g id="line2d_17">
      <g>
       <use xlink:href="#mac8210ebc7" x="397.873348" y="572.776" style="stroke: #000000; stroke-width: 0.6"/>
      </g>
     </g>
    </g>
    <g id="xtick_11">
     <g id="line2d_18">
      <g>
       <use xlink:href="#mac8210ebc7" x="410.781594" y="572.776" style="stroke: #000000; stroke-width: 0.6"/>
      </g>
     </g>
    </g>
    <g id="xtick_12">
     <g id="line2d_19">
      <g>
       <use xlink:href="#mac8210ebc7" x="421.328399" y="572.776" style="stroke: #000000; stroke-width: 0.6"/>
      </g>
     </g>
    </g>
    <g id="xtick_13">
     <g id="line2d_20">
      <g>
       <use xlink:href="#mac8210ebc7" x="430.245595" y="572.776" style="stroke: #000000; stroke-width: 0.6"/>
      </g>
     </g>
    </g>
    <g id="xtick_14">
     <g id="line2d_21">
      <g>
       <use xlink:href="#mac8210ebc7" x="437.970022" y="572.776" style="stroke: #000000; stroke-width: 0.6"/>
      </g>
     </g>
    </g>
    <g id="xtick_15">
     <g id="line2d_22">
      <g>
       <use xlink:href="#mac8210ebc7" x="444.78345" y="572.776" style="stroke: #000000; stroke-width: 0.6"/>
      </g>
     </g>
    </g>
    <g id="xtick_16">
     <g id="line2d_23">
      <g>
       <use xlink:href="#mac8210ebc7" x="490.974942" y="572.776" style="stroke: #000000; stroke-width: 0.6"/>
      </g>
     </g>
    </g>
    <g id="xtick_17">
     <g id="line2d_24">
      <g>
       <use xlink:href="#mac8210ebc7" x="514.429993" y="572.776" style="stroke: #000000; stroke-width: 0.6"/>
      </g>
     </g>
    </g>
    <g id="xtick_18">
     <g id="line2d_25">
      <g>
       <use xlink:href="#mac8210ebc7" x="531.071616" y="572.776" style="stroke: #000000; stroke-width: 0.6"/>
      </g>
     </g>
    </g>
    <g id="xtick_19">
     <g id="line2d_26">
      <g>
       <use xlink:href="#mac8210ebc7" x="543.979862" y="572.776" style="stroke: #000000; stroke-width: 0.6"/>
      </g>
     </g>
    </g>
    <g id="xtick_20">
     <g id="line2d_27">
      <g>
       <use xlink:href="#mac8210ebc7" x="554.526667" y="572.776" style="stroke: #000000; stroke-width: 0.6"/>
      </g>
     </g>
    </g>
    <g id="xtick_21">
     <g id="line2d_28">
      <g>
       <use xlink:href="#mac8210ebc7" x="563.443864" y="572.776" style="stroke: #000000; stroke-width: 0.6"/>
      </g>
     </g>
    </g>
    <g id="xtick_22">
     <g id="line2d_29">
      <g>
       <use xlink:href="#mac8210ebc7" x="571.16829" y="572.776" style="stroke: #000000; stroke-width: 0.6"/>
      </g>
     </g>
    </g>
    <g id="xtick_23">
     <g id="line2d_30">
      <g>
       <use xlink:href="#mac8210ebc7" x="577.981718" y="572.776" style="stroke: #000000; stroke-width: 0.6"/>
      </g>
     </g>
    </g>
    <g id="xtick_24">
     <g id="line2d_31">
      <g>
       <use xlink:href="#mac8210ebc7" x="624.17321" y="572.776" style="stroke: #000000; stroke-width: 0.6"/>
      </g>
     </g>
    </g>
    <g id="xtick_25">
     <g id="line2d_32">
      <g>
       <use xlink:href="#mac8210ebc7" x="647.628261" y="572.776" style="stroke: #000000; stroke-width: 0.6"/>
      </g>
     </g>
    </g>
    <g id="xtick_26">
     <g id="line2d_33">
      <g>
       <use xlink:href="#mac8210ebc7" x="664.269885" y="572.776" style="stroke: #000000; stroke-width: 0.6"/>
      </g>
     </g>
    </g>
    <g id="xtick_27">
     <g id="line2d_34">
      <g>
       <use xlink:href="#mac8210ebc7" x="677.17813" y="572.776" style="stroke: #000000; stroke-width: 0.6"/>
      </g>
     </g>
    </g>
    <g id="xtick_28">
     <g id="line2d_35">
      <g>
       <use xlink:href="#mac8210ebc7" x="687.724935" y="572.776" style="stroke: #000000; stroke-width: 0.6"/>
      </g>
     </g>
    </g>
    <g id="xtick_29">
     <g id="line2d_36">
      <g>
       <use xlink:href="#mac8210ebc7" x="696.642132" y="572.776" style="stroke: #000000; stroke-width: 0.6"/>
      </g>
     </g>
    </g>
    <g id="xtick_30">
     <g id="line2d_37">
      <g>
       <use xlink:href="#mac8210ebc7" x="704.366559" y="572.776" style="stroke: #000000; stroke-width: 0.6"/>
      </g>
     </g>
    </g>
    <g id="xtick_31">
     <g id="line2d_38">
      <g>
       <use xlink:href="#mac8210ebc7" x="711.179986" y="572.776" style="stroke: #000000; stroke-width: 0.6"/>
      </g>
     </g>
    </g>
    <g id="xtick_32">
     <g id="line2d_39">
      <g>
       <use xlink:href="#mac8210ebc7" x="757.371479" y="572.776" style="stroke: #000000; stroke-width: 0.6"/>
      </g>
     </g>
    </g>
    <g id="xtick_33">
     <g id="line2d_40">
      <g>
       <use xlink:href="#mac8210ebc7" x="780.826529" y="572.776" style="stroke: #000000; stroke-width: 0.6"/>
      </g>
     </g>
    </g>
    <g id="xtick_34">
     <g id="line2d_41">
      <g>
       <use xlink:href="#mac8210ebc7" x="797.468153" y="572.776" style="stroke: #000000; stroke-width: 0.6"/>
      </g>
     </g>
    </g>
    <g id="xtick_35">
     <g id="line2d_42">
      <g>
       <use xlink:href="#mac8210ebc7" x="810.376399" y="572.776" style="stroke: #000000; stroke-width: 0.6"/>
      </g>
     </g>
    </g>
    <g id="xtick_36">
     <g id="line2d_43">
      <g>
       <use xlink:href="#mac8210ebc7" x="820.923204" y="572.776" style="stroke: #000000; stroke-width: 0.6"/>
      </g>
     </g>
    </g>
    <g id="xtick_37">
     <g id="line2d_44">
      <g>
       <use xlink:href="#mac8210ebc7" x="829.8404" y="572.776" style="stroke: #000000; stroke-width: 0.6"/>
      </g>
     </g>
    </g>
    <g id="xtick_38">
     <g id="line2d_45">
      <g>
       <use xlink:href="#mac8210ebc7" x="837.564827" y="572.776" style="stroke: #000000; stroke-width: 0.6"/>
      </g>
     </g>
    </g>
    <g id="xtick_39">
     <g id="line2d_46">
      <g>
       <use xlink:href="#mac8210ebc7" x="844.378254" y="572.776" style="stroke: #000000; stroke-width: 0.6"/>
      </g>
     </g>
    </g>
    <g id="xtick_40">
     <g id="line2d_47">
      <g>
       <use xlink:href="#mac8210ebc7" x="890.569747" y="572.776" style="stroke: #000000; stroke-width: 0.6"/>
      </g>
     </g>
    </g>
    <g id="xtick_41">
     <g id="line2d_48">
      <g>
       <use xlink:href="#mac8210ebc7" x="914.024798" y="572.776" style="stroke: #000000; stroke-width: 0.6"/>
      </g>
     </g>
    </g>
    <g id="xtick_42">
     <g id="line2d_49">
      <g>
       <use xlink:href="#mac8210ebc7" x="930.666421" y="572.776" style="stroke: #000000; stroke-width: 0.6"/>
      </g>
     </g>
    </g>
    <g id="xtick_43">
     <g id="line2d_50">
      <g>
       <use xlink:href="#mac8210ebc7" x="943.574667" y="572.776" style="stroke: #000000; stroke-width: 0.6"/>
      </g>
     </g>
    </g>
    <g id="xtick_44">
     <g id="line2d_51">
      <g>
       <use xlink:href="#mac8210ebc7" x="954.121472" y="572.776" style="stroke: #000000; stroke-width: 0.6"/>
      </g>
     </g>
    </g>
    <g id="xtick_45">
     <g id="line2d_52">
      <g>
       <use xlink:href="#mac8210ebc7" x="963.038668" y="572.776" style="stroke: #000000; stroke-width: 0.6"/>
      </g>
     </g>
    </g>
    <g id="xtick_46">
     <g id="line2d_53">
      <g>
       <use xlink:href="#mac8210ebc7" x="970.763095" y="572.776" style="stroke: #000000; stroke-width: 0.6"/>
      </g>
     </g>
    </g>
    <g id="xtick_47">
     <g id="line2d_54">
      <g>
       <use xlink:href="#mac8210ebc7" x="977.576522" y="572.776" style="stroke: #000000; stroke-width: 0.6"/>
      </g>
     </g>
    </g>
    <g id="xtick_48">
     <g id="line2d_55">
      <g>
       <use xlink:href="#mac8210ebc7" x="1023.768015" y="572.776" style="stroke: #000000; stroke-width: 0.6"/>
      </g>
     </g>
    </g>
    <g id="xtick_49">
     <g id="line2d_56">
      <g>
       <use xlink:href="#mac8210ebc7" x="1047.223066" y="572.776" style="stroke: #000000; stroke-width: 0.6"/>
      </g>
     </g>
    </g>
    <g id="xtick_50">
     <g id="line2d_57">
      <g>
       <use xlink:href="#mac8210ebc7" x="1063.864689" y="572.776" style="stroke: #000000; stroke-width: 0.6"/>
      </g>
     </g>
    </g>
    <g id="xtick_51">
     <g id="line2d_58">
      <g>
       <use xlink:href="#mac8210ebc7" x="1076.772935" y="572.776" style="stroke: #000000; stroke-width: 0.6"/>
      </g>
     </g>
    </g>
    <g id="xtick_52">
     <g id="line2d_59">
      <g>
       <use xlink:href="#mac8210ebc7" x="1087.31974" y="572.776" style="stroke: #000000; stroke-width: 0.6"/>
      </g>
     </g>
    </g>
    <g id="xtick_53">
     <g id="line2d_60">
      <g>
       <use xlink:href="#mac8210ebc7" x="1096.236936" y="572.776" style="stroke: #000000; stroke-width: 0.6"/>
      </g>
     </g>
    </g>
    <g id="xtick_54">
     <g id="line2d_61">
      <g>
       <use xlink:href="#mac8210ebc7" x="1103.961363" y="572.776" style="stroke: #000000; stroke-width: 0.6"/>
      </g>
     </g>
    </g>
    <g id="xtick_55">
     <g id="line2d_62">
      <g>
       <use xlink:href="#mac8210ebc7" x="1110.774791" y="572.776" style="stroke: #000000; stroke-width: 0.6"/>
      </g>
     </g>
    </g>
    <g id="text_8">
     <!-- Tempo médio (ms) -->
     <g transform="translate(605.65418 630.071) scale(0.24 -0.24)">
      <defs>
       <path id="DejaVuSans-54" d="M -19 4666 
L 3928 4666 
L 3928 4134 
L 2272 4134 
L 2272 0 
L 1638 0 
L 1638 4134 
L -19 4134 
L -19 4666 
z
" transform="scale(0.015625)"/>
       <path id="DejaVuSans-65" d="M 3597 1894 
L 3597 1613 
L 953 1613 
Q 991 1019 1311 708 
Q 1631 397 2203 397 
Q 2534 397 2845 478 
Q 3156 559 3463 722 
L 3463 178 
Q 3153 47 2828 -22 
Q 2503 -91 2169 -91 
Q 1331 -91 842 396 
Q 353 884 353 1716 
Q 353 2575 817 3079 
Q 1281 3584 2069 3584 
Q 2775 3584 3186 3129 
Q 3597 2675 3597 1894 
z
M 3022 2063 
Q 3016 2534 2758 2815 
Q 2500 3097 2075 3097 
Q 1594 3097 1305 2825 
Q 1016 2553 972 2059 
L 3022 2063 
z
" transform="scale(0.015625)"/>
       <path id="DejaVuSans-6d" d="M 3328 2828 
Q 3544 3216 3844 3400 
Q 4144 3584 4550 3584 
Q 5097 3584 5394 3201 
Q 5691 2819 5691 2113 
L 5691 0 
L 5113 0 
L 5113 2094 
Q 5113 2597 4934 2840 
Q 4756 3084 4391 3084 
Q 3944 3084 3684 2787 
Q 3425 2491 3425 1978 
L 3425 0 
L 2847 0 
L 2847 2094 
Q 2847 2600 2669 2842 
Q 2491 3084 2119 3084 
Q 1678 3084 1418 2786 
Q 1159 2488 1159 1978 
L 1159 0 
L 581 0 
L 581 3500 
L 1159 3500 
L 1159 2956 
Q 1356 3278 1631 3431 
Q 1906 3584 2284 3584 
Q 2666 3584 2933 3390 
Q 3200 3197 3328 2828 
z
" transform="scale(0.015625)"/>
       <path id="DejaVuSans-70" d="M 1159 525 
L 1159 -1331 
L 581 -1331 
L 581 3500 
L 1159 3500 
L 1159 2969 
Q 1341 3281 1617 3432 
Q 1894 3584 2278 3584 
Q 2916 3584 3314 3078 
Q 3713 2572 3713 1747 
Q 3713 922 3314 415 
Q 2916 -91 2278 -91 
Q 1894 -91 1617 61 
Q 1341 213 1159 525 
z
M 3116 1747 
Q 3116 2381 2855 2742 
Q 2594 3103 2138 3103 
Q 1681 3103 1420 2742 
Q 1159 2381 1159 1747 
Q 1159 1113 1420 752 
Q 1681 391 2138 391 
Q 2594 391 2855 752 
Q 3116 1113 3116 1747 
z
" transform="scale(0.015625)"/>
       <path id="DejaVuSans-6f" d="M 1959 3097 
Q 1497 3097 1228 2736 
Q 959 2375 959 1747 
Q 959 1119 1226 758 
Q 1494 397 1959 397 
Q 2419 397 2687 759 
Q 2956 1122 2956 1747 
Q 2956 2369 2687 2733 
Q 2419 3097 1959 3097 
z
M 1959 3584 
Q 2709 3584 3137 3096 
Q 3566 2609 3566 1747 
Q 3566 888 3137 398 
Q 2709 -91 1959 -91 
Q 1206 -91 779 398 
Q 353 888 353 1747 
Q 353 2609 779 3096 
Q 1206 3584 1959 3584 
z
" transform="scale(0.015625)"/>
       <path id="DejaVuSans-20" transform="scale(0.015625)"/>
       <path id="DejaVuSans-e9" d="M 3597 1894 
L 3597 1613 
L 953 1613 
Q 991 1019 1311 708 
Q 1631 397 2203 397 
Q 2534 397 2845 478 
Q 3156 559 3463 722 
L 3463 178 
Q 3153 47 2828 -22 
Q 2503 -91 2169 -91 
Q 1331 -91 842 396 
Q 353 884 353 1716 
Q 353 2575 817 3079 
Q 1281 3584 2069 3584 
Q 2775 3584 3186 3129 
Q 3597 2675 3597 1894 
z
M 3022 2063 
Q 3016 2534 2758 2815 
Q 2500 3097 2075 3097 
Q 1594 3097 1305 2825 
Q 1016 2553 972 2059 
L 3022 2063 
z
M 2466 5119 
L 3088 5119 
L 2070 3944 
L 1591 3944 
L 2466 5119 
z
" transform="scale(0.015625)"/>
       <path id="DejaVuSans-64" d="M 2906 2969 
L 2906 4863 
L 3481 4863 
L 3481 0 
L 2906 0 
L 2906 525 
Q 2725 213 2448 61 
Q 2172 -91 1784 -91 
Q 1150 -91 751 415 
Q 353 922 353 1747 
Q 353 2572 751 3078 
Q 1150 3584 1784 3584 
Q 2172 3584 2448 3432 
Q 2725 3281 2906 2969 
z
M 947 1747 
Q 947 1113 1208 752 
Q 1469 391 1925 391 
Q 2381 391 2643 752 
Q 2906 1113 2906 1747 
Q 2906 2381 2643 2742 
Q 2381 3103 1925 3103 
Q 1469 3103 1208 2742 
Q 947 2381 947 1747 
z
" transform="scale(0.015625)"/>
       <path id="DejaVuSans-69" d="M 603 3500 
L 1178 3500 
L 1178 0 
L 603 0 
L 603 3500 
z
M 603 4863 
L 1178 4863 
L 1178 4134 
L 603 4134 
L 603 4863 
z
" transform="scale(0.015625)"/>
       <path id="DejaVuSans-28" d="M 1984 4856 
Q 1566 4138 1362 3434 
Q 1159 2731 1159 2009 
Q 1159 1288 1364 580 
Q 1569 -128 1984 -844 
L 1484 -844 
Q 1016 -109 783 600 
Q 550 1309 550 2009 
Q 550 2706 781 3412 
Q 1013 4119 1484 4856 
L 1984 4856 
z
" transform="scale(0.015625)"/>
       <path id="DejaVuSans-73" d="M 2834 3397 
L 2834 2853 
Q 2591 2978 2328 3040 
Q 2066 3103 1784 3103 
Q 1356 3103 1142 2972 
Q 928 2841 928 2578 
Q 928 2378 1081 2264 
Q 1234 2150 1697 2047 
L 1894 2003 
Q 2506 1872 2764 1633 
Q 3022 1394 3022 966 
Q 3022 478 2636 193 
Q 2250 -91 1575 -91 
Q 1294 -91 989 -36 
Q 684 19 347 128 
L 347 722 
Q 666 556 975 473 
Q 1284 391 1588 391 
Q 1994 391 2212 530 
Q 2431 669 2431 922 
Q 2431 1156 2273 1281 
Q 2116 1406 1581 1522 
L 1381 1569 
Q 847 1681 609 1914 
Q 372 2147 372 2553 
Q 372 3047 722 3315 
Q 1072 3584 1716 3584 
Q 2034 3584 2315 3537 
Q 2597 3491 2834 3397 
z
" transform="scale(0.015625)"/>
       <path id="DejaVuSans-29" d="M 513 4856 
L 1013 4856 
Q 1481 4119 1714 3412 
Q 1947 2706 1947 2009 
Q 1947 1309 1714 600 
Q 1481 -109 1013 -844 
L 513 -844 
Q 928 -128 1133 580 
Q 1338 1288 1338 2009 
Q 1338 2731 1133 3434 
Q 928 4138 513 4856 
z
" transform="scale(0.015625)"/>
      </defs>
      <use xlink:href="#DejaVuSans-54"/>
      <use xlink:href="#DejaVuSans-65" transform="translate(44.083984 0)"/>
      <use xlink:href="#DejaVuSans-6d" transform="translate(105.607422 0)"/>
      <use xlink:href="#DejaVuSans-70" transform="translate(203.019531 0)"/>
      <use xlink:href="#DejaVuSans-6f" transform="translate(266.496094 0)"/>
      <use xlink:href="#DejaVuSans-20" transform="translate(327.677734 0)"/>
      <use xlink:href="#DejaVuSans-6d" transform="translate(359.464844 0)"/>
      <use xlink:href="#DejaVuSans-e9" transform="translate(456.876953 0)"/>
      <use xlink:href="#DejaVuSans-64" transform="translate(518.400391 0)"/>
      <use xlink:href="#DejaVuSans-69" transform="translate(581.876953 0)"/>
      <use xlink:href="#DejaVuSans-6f" transform="translate(609.660156 0)"/>
      <use xlink:href="#DejaVuSans-20" transform="translate(670.841797 0)"/>
      <use xlink:href="#DejaVuSans-28" transform="translate(702.628906 0)"/>
      <use xlink:href="#DejaVuSans-6d" transform="translate(741.642578 0)"/>
      <use xlink:href="#DejaVuSans-73" transform="translate(839.054688 0)"/>
      <use xlink:href="#DejaVuSans-29" transform="translate(891.154297 0)"/>
     </g>
    </g>
   </g>
   <g id="matplotlib.axis_2">
    <g id="ytick_1">
     <g id="line2d_63">
      <defs>
       <path id="mb9633a8a2b" d="M 0 0 
L -3.5 0 
" style="stroke: #000000; stroke-width: 0.8"/>
      </defs>
      <g>
       <use xlink:href="#mb9633a8a2b" x="317.68" y="551.161538" style="stroke: #000000; stroke-width: 0.8"/>
      </g>
     </g>
     <g id="text_9">
      <!-- mldsa -->
      <g transform="translate(226.106875 558.887788) scale(0.28 -0.28)">
       <defs>
        <path id="DejaVuSans-6c" d="M 603 4863 
L 1178 4863 
L 1178 0 
L 603 0 
L 603 4863 
z
" transform="scale(0.015625)"/>
        <path id="DejaVuSans-61" d="M 2194 1759 
Q 1497 1759 1228 1600 
Q 959 1441 959 1056 
Q 959 750 1161 570 
Q 1363 391 1709 391 
Q 2188 391 2477 730 
Q 2766 1069 2766 1631 
L 2766 1759 
L 2194 1759 
z
M 3341 1997 
L 3341 0 
L 2766 0 
L 2766 531 
Q 2569 213 2275 61 
Q 1981 -91 1556 -91 
Q 1019 -91 701 211 
Q 384 513 384 1019 
Q 384 1609 779 1909 
Q 1175 2209 1959 2209 
L 2766 2209 
L 2766 2266 
Q 2766 2663 2505 2880 
Q 2244 3097 1772 3097 
Q 1472 3097 1187 3025 
Q 903 2953 641 2809 
L 641 3341 
Q 956 3463 1253 3523 
Q 1550 3584 1831 3584 
Q 2591 3584 2966 3190 
Q 3341 2797 3341 1997 
z
" transform="scale(0.015625)"/>
       </defs>
       <use xlink:href="#DejaVuSans-6d"/>
       <use xlink:href="#DejaVuSans-6c" transform="translate(97.412109 0)"/>
       <use xlink:href="#DejaVuSans-64" transform="translate(125.195312 0)"/>
       <use xlink:href="#DejaVuSans-73" transform="translate(188.671875 0)"/>
       <use xlink:href="#DejaVuSans-61" transform="translate(240.771484 0)"/>
      </g>
     </g>
    </g>
    <g id="ytick_2">
     <g id="line2d_64">
      <g>
       <use xlink:href="#mb9633a8a2b" x="317.68" y="507.932615" style="stroke: #000000; stroke-width: 0.8"/>
      </g>
     </g>
     <g id="text_10">
      <!-- sphincs-sha-s -->
      <g transform="translate(120.7875 515.658865) scale(0.28 -0.28)">
       <defs>
        <path id="DejaVuSans-68" d="M 3513 2113 
L 3513 0 
L 2938 0 
L 2938 2094 
Q 2938 2591 2744 2837 
Q 2550 3084 2163 3084 
Q 1697 3084 1428 2787 
Q 1159 2491 1159 1978 
L 1159 0 
L 581 0 
L 581 4863 
L 1159 4863 
L 1159 2956 
Q 1366 3272 1645 3428 
Q 1925 3584 2291 3584 
Q 2894 3584 3203 3211 
Q 3513 2838 3513 2113 
z
" transform="scale(0.015625)"/>
        <path id="DejaVuSans-6e" d="M 3513 2113 
L 3513 0 
L 2938 0 
L 2938 2094 
Q 2938 2591 2744 2837 
Q 2550 3084 2163 3084 
Q 1697 3084 1428 2787 
Q 1159 2491 1159 1978 
L 1159 0 
L 581 0 
L 581 3500 
L 1159 3500 
L 1159 2956 
Q 1366 3272 1645 3428 
Q 1925 3584 2291 3584 
Q 2894 3584 3203 3211 
Q 3513 2838 3513 2113 
z
" transform="scale(0.015625)"/>
        <path id="DejaVuSans-63" d="M 3122 3366 
L 3122 2828 
Q 2878 2963 2633 3030 
Q 2388 3097 2138 3097 
Q 1578 3097 1268 2742 
Q 959 2388 959 1747 
Q 959 1106 1268 751 
Q 1578 397 2138 397 
Q 2388 397 2633 464 
Q 2878 531 3122 666 
L 3122 134 
Q 2881 22 2623 -34 
Q 2366 -91 2075 -91 
Q 1284 -91 818 406 
Q 353 903 353 1747 
Q 353 2603 823 3093 
Q 1294 3584 2113 3584 
Q 2378 3584 2631 3529 
Q 2884 3475 3122 3366 
z
" transform="scale(0.015625)"/>
        <path id="DejaVuSans-2d" d="M 313 2009 
L 1997 2009 
L 1997 1497 
L 313 1497 
L 313 2009 
z
" transform="scale(0.015625)"/>
       </defs>
       <use xlink:href="#DejaVuSans-73"/>
       <use xlink:href="#DejaVuSans-70" transform="translate(52.099609 0)"/>
       <use xlink:href="#DejaVuSans-68" transform="translate(115.576172 0)"/>
       <use xlink:href="#DejaVuSans-69" transform="translate(178.955078 0)"/>
       <use xlink:href="#DejaVuSans-6e" transform="translate(206.738281 0)"/>
       <use xlink:href="#DejaVuSans-63" transform="translate(270.117188 0)"/>
       <use xlink:href="#DejaVuSans-73" transform="translate(325.097656 0)"/>
       <use xlink:href="#DejaVuSans-2d" transform="translate(377.197266 0)"/>
       <use xlink:href="#DejaVuSans-73" transform="translate(413.28125 0)"/>
       <use xlink:href="#DejaVuSans-68" transform="translate(465.380859 0)"/>
       <use xlink:href="#DejaVuSans-61" transform="translate(528.759766 0)"/>
       <use xlink:href="#DejaVuSans-2d" transform="translate(590.039062 0)"/>
       <use xlink:href="#DejaVuSans-73" transform="translate(626.123047 0)"/>
      </g>
     </g>
    </g>
    <g id="ytick_3">
     <g id="line2d_65">
      <g>
       <use xlink:href="#mb9633a8a2b" x="317.68" y="464.703692" style="stroke: #000000; stroke-width: 0.8"/>
      </g>
     </g>
     <g id="text_11">
      <!-- sphincs-sha-f -->
      <g transform="translate(125.516875 472.429942) scale(0.28 -0.28)">
       <defs>
        <path id="DejaVuSans-66" d="M 2375 4863 
L 2375 4384 
L 1825 4384 
Q 1516 4384 1395 4259 
Q 1275 4134 1275 3809 
L 1275 3500 
L 2222 3500 
L 2222 3053 
L 1275 3053 
L 1275 0 
L 697 0 
L 697 3053 
L 147 3053 
L 147 3500 
L 697 3500 
L 697 3744 
Q 697 4328 969 4595 
Q 1241 4863 1831 4863 
L 2375 4863 
z
" transform="scale(0.015625)"/>
       </defs>
       <use xlink:href="#DejaVuSans-73"/>
       <use xlink:href="#DejaVuSans-70" transform="translate(52.099609 0)"/>
       <use xlink:href="#DejaVuSans-68" transform="translate(115.576172 0)"/>
       <use xlink:href="#DejaVuSans-69" transform="translate(178.955078 0)"/>
       <use xlink:href="#DejaVuSans-6e" transform="translate(206.738281 0)"/>
       <use xlink:href="#DejaVuSans-63" transform="translate(270.117188 0)"/>
       <use xlink:href="#DejaVuSans-73" transform="translate(325.097656 0)"/>
       <use xlink:href="#DejaVuSans-2d" transform="translate(377.197266 0)"/>
       <use xlink:href="#DejaVuSans-73" transform="translate(413.28125 0)"/>
       <use xlink:href="#DejaVuSans-68" transform="translate(465.380859 0)"/>
       <use xlink:href="#DejaVuSans-61" transform="translate(528.759766 0)"/>
       <use xlink:href="#DejaVuSans-2d" transform="translate(590.039062 0)"/>
       <use xlink:href="#DejaVuSans-66" transform="translate(626.123047 0)"/>
      </g>
     </g>
    </g>
    <g id="ytick_4">
     <g id="line2d_66">
      <g>
       <use xlink:href="#mb9633a8a2b" x="317.68" y="421.474769" style="stroke: #000000; stroke-width: 0.8"/>
      </g>
     </g>
     <g id="text_12">
      <!-- sphincs-shake-s -->
      <g transform="translate(88.36 429.201019) scale(0.28 -0.28)">
       <defs>
        <path id="DejaVuSans-6b" d="M 581 4863 
L 1159 4863 
L 1159 1991 
L 2875 3500 
L 3609 3500 
L 1753 1863 
L 3688 0 
L 2938 0 
L 1159 1709 
L 1159 0 
L 581 0 
L 581 4863 
z
" transform="scale(0.015625)"/>
       </defs>
       <use xlink:href="#DejaVuSans-73"/>
       <use xlink:href="#DejaVuSans-70" transform="translate(52.099609 0)"/>
       <use xlink:href="#DejaVuSans-68" transform="translate(115.576172 0)"/>
       <use xlink:href="#DejaVuSans-69" transform="translate(178.955078 0)"/>
       <use xlink:href="#DejaVuSans-6e" transform="translate(206.738281 0)"/>
       <use xlink:href="#DejaVuSans-63" transform="translate(270.117188 0)"/>
       <use xlink:href="#DejaVuSans-73" transform="translate(325.097656 0)"/>
       <use xlink:href="#DejaVuSans-2d" transform="translate(377.197266 0)"/>
       <use xlink:href="#DejaVuSans-73" transform="translate(413.28125 0)"/>
       <use xlink:href="#DejaVuSans-68" transform="translate(465.380859 0)"/>
       <use xlink:href="#DejaVuSans-61" transform="translate(528.759766 0)"/>
       <use xlink:href="#DejaVuSans-6b" transform="translate(590.039062 0)"/>
       <use xlink:href="#DejaVuSans-65" transform="translate(644.324219 0)"/>
       <use xlink:href="#DejaVuSans-2d" transform="translate(705.847656 0)"/>
       <use xlink:href="#DejaVuSans-73" transform="translate(741.931641 0)"/>
      </g>
     </g>
    </g>
    <g id="ytick_5">
     <g id="line2d_67">
      <g>
       <use xlink:href="#mb9633a8a2b" x="317.68" y="378.245846" style="stroke: #000000; stroke-width: 0.8"/>
      </g>
     </g>
     <g id="text_13">
      <!-- sphincs-shake-f -->
      <g transform="translate(93.089375 385.972096) scale(0.28 -0.28)">
       <use xlink:href="#DejaVuSans-73"/>
       <use xlink:href="#DejaVuSans-70" transform="translate(52.099609 0)"/>
       <use xlink:href="#DejaVuSans-68" transform="translate(115.576172 0)"/>
       <use xlink:href="#DejaVuSans-69" transform="translate(178.955078 0)"/>
       <use xlink:href="#DejaVuSans-6e" transform="translate(206.738281 0)"/>
       <use xlink:href="#DejaVuSans-63" transform="translate(270.117188 0)"/>
       <use xlink:href="#DejaVuSans-73" transform="translate(325.097656 0)"/>
       <use xlink:href="#DejaVuSans-2d" transform="translate(377.197266 0)"/>
       <use xlink:href="#DejaVuSans-73" transform="translate(413.28125 0)"/>
       <use xlink:href="#DejaVuSans-68" transform="translate(465.380859 0)"/>
       <use xlink:href="#DejaVuSans-61" transform="translate(528.759766 0)"/>
       <use xlink:href="#DejaVuSans-6b" transform="translate(590.039062 0)"/>
       <use xlink:href="#DejaVuSans-65" transform="translate(644.324219 0)"/>
       <use xlink:href="#DejaVuSans-2d" transform="translate(705.847656 0)"/>
       <use xlink:href="#DejaVuSans-66" transform="translate(741.931641 0)"/>
      </g>
     </g>
    </g>
    <g id="ytick_6">
     <g id="line2d_68">
      <g>
       <use xlink:href="#mb9633a8a2b" x="317.68" y="335.016923" style="stroke: #000000; stroke-width: 0.8"/>
      </g>
     </g>
     <g id="text_14">
      <!-- mayo -->
      <g transform="translate(232.5425 342.743173) scale(0.28 -0.28)">
       <defs>
        <path id="DejaVuSans-79" d="M 2059 -325 
Q 1816 -950 1584 -1140 
Q 1353 -1331 966 -1331 
L 506 -1331 
L 506 -850 
L 844 -850 
Q 1081 -850 1212 -737 
Q 1344 -625 1503 -206 
L 1606 56 
L 191 3500 
L 800 3500 
L 1894 763 
L 2988 3500 
L 3597 3500 
L 2059 -325 
z
" transform="scale(0.015625)"/>
       </defs>
       <use xlink:href="#DejaVuSans-6d"/>
       <use xlink:href="#DejaVuSans-61" transform="translate(97.412109 0)"/>
       <use xlink:href="#DejaVuSans-79" transform="translate(158.691406 0)"/>
       <use xlink:href="#DejaVuSans-6f" transform="translate(217.871094 0)"/>
      </g>
     </g>
    </g>
    <g id="ytick_7">
     <g id="line2d_69">
      <g>
       <use xlink:href="#mb9633a8a2b" x="317.68" y="291.788" style="stroke: #000000; stroke-width: 0.8"/>
      </g>
     </g>
     <g id="text_15">
      <!-- cross-rsdp-small -->
      <g transform="translate(81.670625 299.51425) scale(0.28 -0.28)">
       <defs>
        <path id="DejaVuSans-72" d="M 2631 2963 
Q 2534 3019 2420 3045 
Q 2306 3072 2169 3072 
Q 1681 3072 1420 2755 
Q 1159 2438 1159 1844 
L 1159 0 
L 581 0 
L 581 3500 
L 1159 3500 
L 1159 2956 
Q 1341 3275 1631 3429 
Q 1922 3584 2338 3584 
Q 2397 3584 2469 3576 
Q 2541 3569 2628 3553 
L 2631 2963 
z
" transform="scale(0.015625)"/>
       </defs>
       <use xlink:href="#DejaVuSans-63"/>
       <use xlink:href="#DejaVuSans-72" transform="translate(54.980469 0)"/>
       <use xlink:href="#DejaVuSans-6f" transform="translate(93.84375 0)"/>
       <use xlink:href="#DejaVuSans-73" transform="translate(155.025391 0)"/>
       <use xlink:href="#DejaVuSans-73" transform="translate(207.125 0)"/>
       <use xlink:href="#DejaVuSans-2d" transform="translate(259.224609 0)"/>
       <use xlink:href="#DejaVuSans-72" transform="translate(295.308594 0)"/>
       <use xlink:href="#DejaVuSans-73" transform="translate(336.421875 0)"/>
       <use xlink:href="#DejaVuSans-64" transform="translate(388.521484 0)"/>
       <use xlink:href="#DejaVuSans-70" transform="translate(451.998047 0)"/>
       <use xlink:href="#DejaVuSans-2d" transform="translate(515.474609 0)"/>
       <use xlink:href="#DejaVuSans-73" transform="translate(551.558594 0)"/>
       <use xlink:href="#DejaVuSans-6d" transform="translate(603.658203 0)"/>
       <use xlink:href="#DejaVuSans-61" transform="translate(701.070312 0)"/>
       <use xlink:href="#DejaVuSans-6c" transform="translate(762.349609 0)"/>
       <use xlink:href="#DejaVuSans-6c" transform="translate(790.132812 0)"/>
      </g>
     </g>
    </g>
    <g id="ytick_8">
     <g id="line2d_70">
      <g>
       <use xlink:href="#mb9633a8a2b" x="317.68" y="248.559077" style="stroke: #000000; stroke-width: 0.8"/>
      </g>
     </g>
     <g id="text_16">
      <!-- cross-rsdpg-small -->
      <g transform="translate(63.895 256.285327) scale(0.28 -0.28)">
       <defs>
        <path id="DejaVuSans-67" d="M 2906 1791 
Q 2906 2416 2648 2759 
Q 2391 3103 1925 3103 
Q 1463 3103 1205 2759 
Q 947 2416 947 1791 
Q 947 1169 1205 825 
Q 1463 481 1925 481 
Q 2391 481 2648 825 
Q 2906 1169 2906 1791 
z
M 3481 434 
Q 3481 -459 3084 -895 
Q 2688 -1331 1869 -1331 
Q 1566 -1331 1297 -1286 
Q 1028 -1241 775 -1147 
L 775 -588 
Q 1028 -725 1275 -790 
Q 1522 -856 1778 -856 
Q 2344 -856 2625 -561 
Q 2906 -266 2906 331 
L 2906 616 
Q 2728 306 2450 153 
Q 2172 0 1784 0 
Q 1141 0 747 490 
Q 353 981 353 1791 
Q 353 2603 747 3093 
Q 1141 3584 1784 3584 
Q 2172 3584 2450 3431 
Q 2728 3278 2906 2969 
L 2906 3500 
L 3481 3500 
L 3481 434 
z
" transform="scale(0.015625)"/>
       </defs>
       <use xlink:href="#DejaVuSans-63"/>
       <use xlink:href="#DejaVuSans-72" transform="translate(54.980469 0)"/>
       <use xlink:href="#DejaVuSans-6f" transform="translate(93.84375 0)"/>
       <use xlink:href="#DejaVuSans-73" transform="translate(155.025391 0)"/>
       <use xlink:href="#DejaVuSans-73" transform="translate(207.125 0)"/>
       <use xlink:href="#DejaVuSans-2d" transform="translate(259.224609 0)"/>
       <use xlink:href="#DejaVuSans-72" transform="translate(295.308594 0)"/>
       <use xlink:href="#DejaVuSans-73" transform="translate(336.421875 0)"/>
       <use xlink:href="#DejaVuSans-64" transform="translate(388.521484 0)"/>
       <use xlink:href="#DejaVuSans-70" transform="translate(451.998047 0)"/>
       <use xlink:href="#DejaVuSans-67" transform="translate(515.474609 0)"/>
       <use xlink:href="#DejaVuSans-2d" transform="translate(578.951172 0)"/>
       <use xlink:href="#DejaVuSans-73" transform="translate(615.035156 0)"/>
       <use xlink:href="#DejaVuSans-6d" transform="translate(667.134766 0)"/>
       <use xlink:href="#DejaVuSans-61" transform="translate(764.546875 0)"/>
       <use xlink:href="#DejaVuSans-6c" transform="translate(825.826172 0)"/>
       <use xlink:href="#DejaVuSans-6c" transform="translate(853.609375 0)"/>
      </g>
     </g>
    </g>
    <g id="ytick_9">
     <g id="line2d_71">
      <g>
       <use xlink:href="#mb9633a8a2b" x="317.68" y="205.330154" style="stroke: #000000; stroke-width: 0.8"/>
      </g>
     </g>
     <g id="text_17">
      <!-- cross-rsdp-balanced -->
      <g transform="translate(28.23 213.056404) scale(0.28 -0.28)">
       <defs>
        <path id="DejaVuSans-62" d="M 3116 1747 
Q 3116 2381 2855 2742 
Q 2594 3103 2138 3103 
Q 1681 3103 1420 2742 
Q 1159 2381 1159 1747 
Q 1159 1113 1420 752 
Q 1681 391 2138 391 
Q 2594 391 2855 752 
Q 3116 1113 3116 1747 
z
M 1159 2969 
Q 1341 3281 1617 3432 
Q 1894 3584 2278 3584 
Q 2916 3584 3314 3078 
Q 3713 2572 3713 1747 
Q 3713 922 3314 415 
Q 2916 -91 2278 -91 
Q 1894 -91 1617 61 
Q 1341 213 1159 525 
L 1159 0 
L 581 0 
L 581 4863 
L 1159 4863 
L 1159 2969 
z
" transform="scale(0.015625)"/>
       </defs>
       <use xlink:href="#DejaVuSans-63"/>
       <use xlink:href="#DejaVuSans-72" transform="translate(54.980469 0)"/>
       <use xlink:href="#DejaVuSans-6f" transform="translate(93.84375 0)"/>
       <use xlink:href="#DejaVuSans-73" transform="translate(155.025391 0)"/>
       <use xlink:href="#DejaVuSans-73" transform="translate(207.125 0)"/>
       <use xlink:href="#DejaVuSans-2d" transform="translate(259.224609 0)"/>
       <use xlink:href="#DejaVuSans-72" transform="translate(295.308594 0)"/>
       <use xlink:href="#DejaVuSans-73" transform="translate(336.421875 0)"/>
       <use xlink:href="#DejaVuSans-64" transform="translate(388.521484 0)"/>
       <use xlink:href="#DejaVuSans-70" transform="translate(451.998047 0)"/>
       <use xlink:href="#DejaVuSans-2d" transform="translate(515.474609 0)"/>
       <use xlink:href="#DejaVuSans-62" transform="translate(551.558594 0)"/>
       <use xlink:href="#DejaVuSans-61" transform="translate(615.035156 0)"/>
       <use xlink:href="#DejaVuSans-6c" transform="translate(676.314453 0)"/>
       <use xlink:href="#DejaVuSans-61" transform="translate(704.097656 0)"/>
       <use xlink:href="#DejaVuSans-6e" transform="translate(765.376953 0)"/>
       <use xlink:href="#DejaVuSans-63" transform="translate(828.755859 0)"/>
       <use xlink:href="#DejaVuSans-65" transform="translate(883.736328 0)"/>
       <use xlink:href="#DejaVuSans-64" transform="translate(945.259766 0)"/>
      </g>
     </g>
    </g>
    <g id="ytick_10">
     <g id="line2d_72">
      <g>
       <use xlink:href="#mb9633a8a2b" x="317.68" y="162.101231" style="stroke: #000000; stroke-width: 0.8"/>
      </g>
     </g>
     <g id="text_18">
      <!-- cross-rsdpg-balanced -->
      <g transform="translate(10.454375 169.827481) scale(0.28 -0.28)">
       <use xlink:href="#DejaVuSans-63"/>
       <use xlink:href="#DejaVuSans-72" transform="translate(54.980469 0)"/>
       <use xlink:href="#DejaVuSans-6f" transform="translate(93.84375 0)"/>
       <use xlink:href="#DejaVuSans-73" transform="translate(155.025391 0)"/>
       <use xlink:href="#DejaVuSans-73" transform="translate(207.125 0)"/>
       <use xlink:href="#DejaVuSans-2d" transform="translate(259.224609 0)"/>
       <use xlink:href="#DejaVuSans-72" transform="translate(295.308594 0)"/>
       <use xlink:href="#DejaVuSans-73" transform="translate(336.421875 0)"/>
       <use xlink:href="#DejaVuSans-64" transform="translate(388.521484 0)"/>
       <use xlink:href="#DejaVuSans-70" transform="translate(451.998047 0)"/>
       <use xlink:href="#DejaVuSans-67" transform="translate(515.474609 0)"/>
       <use xlink:href="#DejaVuSans-2d" transform="translate(578.951172 0)"/>
       <use xlink:href="#DejaVuSans-62" transform="translate(615.035156 0)"/>
       <use xlink:href="#DejaVuSans-61" transform="translate(678.511719 0)"/>
       <use xlink:href="#DejaVuSans-6c" transform="translate(739.791016 0)"/>
       <use xlink:href="#DejaVuSans-61" transform="translate(767.574219 0)"/>
       <use xlink:href="#DejaVuSans-6e" transform="translate(828.853516 0)"/>
       <use xlink:href="#DejaVuSans-63" transform="translate(892.232422 0)"/>
       <use xlink:href="#DejaVuSans-65" transform="translate(947.212891 0)"/>
       <use xlink:href="#DejaVuSans-64" transform="translate(1008.736328 0)"/>
      </g>
     </g>
    </g>
    <g id="ytick_11">
     <g id="line2d_73">
      <g>
       <use xlink:href="#mb9633a8a2b" x="317.68" y="118.872308" style="stroke: #000000; stroke-width: 0.8"/>
      </g>
     </g>
     <g id="text_19">
      <!-- cross-rsdp-fast -->
      <g transform="translate(103.668125 126.598558) scale(0.28 -0.28)">
       <defs>
        <path id="DejaVuSans-74" d="M 1172 4494 
L 1172 3500 
L 2356 3500 
L 2356 3053 
L 1172 3053 
L 1172 1153 
Q 1172 725 1289 603 
Q 1406 481 1766 481 
L 2356 481 
L 2356 0 
L 1766 0 
Q 1100 0 847 248 
Q 594 497 594 1153 
L 594 3053 
L 172 3053 
L 172 3500 
L 594 3500 
L 594 4494 
L 1172 4494 
z
" transform="scale(0.015625)"/>
       </defs>
       <use xlink:href="#DejaVuSans-63"/>
       <use xlink:href="#DejaVuSans-72" transform="translate(54.980469 0)"/>
       <use xlink:href="#DejaVuSans-6f" transform="translate(93.84375 0)"/>
       <use xlink:href="#DejaVuSans-73" transform="translate(155.025391 0)"/>
       <use xlink:href="#DejaVuSans-73" transform="translate(207.125 0)"/>
       <use xlink:href="#DejaVuSans-2d" transform="translate(259.224609 0)"/>
       <use xlink:href="#DejaVuSans-72" transform="translate(295.308594 0)"/>
       <use xlink:href="#DejaVuSans-73" transform="translate(336.421875 0)"/>
       <use xlink:href="#DejaVuSans-64" transform="translate(388.521484 0)"/>
       <use xlink:href="#DejaVuSans-70" transform="translate(451.998047 0)"/>
       <use xlink:href="#DejaVuSans-2d" transform="translate(515.474609 0)"/>
       <use xlink:href="#DejaVuSans-66" transform="translate(551.558594 0)"/>
       <use xlink:href="#DejaVuSans-61" transform="translate(586.763672 0)"/>
       <use xlink:href="#DejaVuSans-73" transform="translate(648.042969 0)"/>
       <use xlink:href="#DejaVuSans-74" transform="translate(700.142578 0)"/>
      </g>
     </g>
    </g>
    <g id="ytick_12">
     <g id="line2d_74">
      <g>
       <use xlink:href="#mb9633a8a2b" x="317.68" y="75.643385" style="stroke: #000000; stroke-width: 0.8"/>
      </g>
     </g>
     <g id="text_20">
      <!-- cross-rsdpg-fast -->
      <g transform="translate(85.8925 83.369635) scale(0.28 -0.28)">
       <use xlink:href="#DejaVuSans-63"/>
       <use xlink:href="#DejaVuSans-72" transform="translate(54.980469 0)"/>
       <use xlink:href="#DejaVuSans-6f" transform="translate(93.84375 0)"/>
       <use xlink:href="#DejaVuSans-73" transform="translate(155.025391 0)"/>
       <use xlink:href="#DejaVuSans-73" transform="translate(207.125 0)"/>
       <use xlink:href="#DejaVuSans-2d" transform="translate(259.224609 0)"/>
       <use xlink:href="#DejaVuSans-72" transform="translate(295.308594 0)"/>
       <use xlink:href="#DejaVuSans-73" transform="translate(336.421875 0)"/>
       <use xlink:href="#DejaVuSans-64" transform="translate(388.521484 0)"/>
       <use xlink:href="#DejaVuSans-70" transform="translate(451.998047 0)"/>
       <use xlink:href="#DejaVuSans-67" transform="translate(515.474609 0)"/>
       <use xlink:href="#DejaVuSans-2d" transform="translate(578.951172 0)"/>
       <use xlink:href="#DejaVuSans-66" transform="translate(615.035156 0)"/>
       <use xlink:href="#DejaVuSans-61" transform="translate(650.240234 0)"/>
       <use xlink:href="#DejaVuSans-73" transform="translate(711.519531 0)"/>
       <use xlink:href="#DejaVuSans-74" transform="translate(763.619141 0)"/>
      </g>
     </g>
    </g>
    <g id="ytick_13">
     <g id="line2d_75">
      <g>
       <use xlink:href="#mb9633a8a2b" x="317.68" y="32.414462" style="stroke: #000000; stroke-width: 0.8"/>
      </g>
     </g>
     <g id="text_21">
      <!-- ecdsa -->
      <g transform="translate(228.535 40.140712) scale(0.28 -0.28)">
       <use xlink:href="#DejaVuSans-65"/>
       <use xlink:href="#DejaVuSans-63" transform="translate(61.523438 0)"/>
       <use xlink:href="#DejaVuSans-64" transform="translate(116.503906 0)"/>
       <use xlink:href="#DejaVuSans-73" transform="translate(179.980469 0)"/>
       <use xlink:href="#DejaVuSans-61" transform="translate(232.080078 0)"/>
      </g>
     </g>
    </g>
   </g>
   <g id="LineCollection_1">
    <path d="M 674.676821 551.161538 
L 677.121479 551.161538 
" clip-path="url(#p6fd185ee39)" style="fill: none; stroke: #ff0000; stroke-width: 2"/>
    <path d="M 798.664931 507.932615 
L 801.175517 507.932615 
" clip-path="url(#p6fd185ee39)" style="fill: none; stroke: #ff0000; stroke-width: 2"/>
    <path d="M 848.144415 464.703692 
L 850.716709 464.703692 
" clip-path="url(#p6fd185ee39)" style="fill: none; stroke: #ff0000; stroke-width: 2"/>
    <path d="M 816.44134 421.474769 
L 818.986061 421.474769 
" clip-path="url(#p6fd185ee39)" style="fill: none; stroke: #ff0000; stroke-width: 2"/>
    <path d="M 874.358206 378.245846 
L 876.906882 378.245846 
" clip-path="url(#p6fd185ee39)" style="fill: none; stroke: #ff0000; stroke-width: 2"/>
    <path d="M 715.069693 335.016923 
L 717.494204 335.016923 
" clip-path="url(#p6fd185ee39)" style="fill: none; stroke: #ff0000; stroke-width: 2"/>
    <path d="M 906.741928 291.788 
L 909.317926 291.788 
" clip-path="url(#p6fd185ee39)" style="fill: none; stroke: #ff0000; stroke-width: 2"/>
    <path d="M 890.344116 248.559077 
L 892.912472 248.559077 
" clip-path="url(#p6fd185ee39)" style="fill: none; stroke: #ff0000; stroke-width: 2"/>
    <path d="M 856.796748 205.330154 
L 859.406437 205.330154 
" clip-path="url(#p6fd185ee39)" style="fill: none; stroke: #ff0000; stroke-width: 2"/>
    <path d="M 816.664255 162.101231 
L 819.125548 162.101231 
" clip-path="url(#p6fd185ee39)" style="fill: none; stroke: #ff0000; stroke-width: 2"/>
    <path d="M 823.462104 118.872308 
L 825.837903 118.872308 
" clip-path="url(#p6fd185ee39)" style="fill: none; stroke: #ff0000; stroke-width: 2"/>
    <path d="M 807.053734 75.643385 
L 809.494653 75.643385 
" clip-path="url(#p6fd185ee39)" style="fill: none; stroke: #ff0000; stroke-width: 2"/>
    <path d="M 836.013795 32.414462 
L 838.550291 32.414462 
" clip-path="url(#p6fd185ee39)" style="fill: none; stroke: #ff0000; stroke-width: 2"/>
   </g>
   <g id="line2d_76">
    <defs>
     <path id="m710599092b" d="M 0 5 
L 0 -5 
" style="stroke: #ff0000"/>
    </defs>
    <g clip-path="url(#p6fd185ee39)">
     <use xlink:href="#m710599092b" x="674.676821" y="551.161538" style="fill: #ff0000; stroke: #ff0000"/>
     <use xlink:href="#m710599092b" x="798.664931" y="507.932615" style="fill: #ff0000; stroke: #ff0000"/>
     <use xlink:href="#m710599092b" x="848.144415" y="464.703692" style="fill: #ff0000; stroke: #ff0000"/>
     <use xlink:href="#m710599092b" x="816.44134" y="421.474769" style="fill: #ff0000; stroke: #ff0000"/>
     <use xlink:href="#m710599092b" x="874.358206" y="378.245846" style="fill: #ff0000; stroke: #ff0000"/>
     <use xlink:href="#m710599092b" x="715.069693" y="335.016923" style="fill: #ff0000; stroke: #ff0000"/>
     <use xlink:href="#m710599092b" x="906.741928" y="291.788" style="fill: #ff0000; stroke: #ff0000"/>
     <use xlink:href="#m710599092b" x="890.344116" y="248.559077" style="fill: #ff0000; stroke: #ff0000"/>
     <use xlink:href="#m710599092b" x="856.796748" y="205.330154" style="fill: #ff0000; stroke: #ff0000"/>
     <use xlink:href="#m710599092b" x="816.664255" y="162.101231" style="fill: #ff0000; stroke: #ff0000"/>
     <use xlink:href="#m710599092b" x="823.462104" y="118.872308" style="fill: #ff0000; stroke: #ff0000"/>
     <use xlink:href="#m710599092b" x="807.053734" y="75.643385" style="fill: #ff0000; stroke: #ff0000"/>
     <use xlink:href="#m710599092b" x="836.013795" y="32.414462" style="fill: #ff0000; stroke: #ff0000"/>
    </g>
   </g>
   <g id="line2d_77">
    <g clip-path="url(#p6fd185ee39)">
     <use xlink:href="#m710599092b" x="677.121479" y="551.161538" style="fill: #ff0000; stroke: #ff0000"/>
     <use xlink:href="#m710599092b" x="801.175517" y="507.932615" style="fill: #ff0000; stroke: #ff0000"/>
     <use xlink:href="#m710599092b" x="850.716709" y="464.703692" style="fill: #ff0000; stroke: #ff0000"/>
     <use xlink:href="#m710599092b" x="818.986061" y="421.474769" style="fill: #ff0000; stroke: #ff0000"/>
     <use xlink:href="#m710599092b" x="876.906882" y="378.245846" style="fill: #ff0000; stroke: #ff0000"/>
     <use xlink:href="#m710599092b" x="717.494204" y="335.016923" style="fill: #ff0000; stroke: #ff0000"/>
     <use xlink:href="#m710599092b" x="909.317926" y="291.788" style="fill: #ff0000; stroke: #ff0000"/>
     <use xlink:href="#m710599092b" x="892.912472" y="248.559077" style="fill: #ff0000; stroke: #ff0000"/>
     <use xlink:href="#m710599092b" x="859.406437" y="205.330154" style="fill: #ff0000; stroke: #ff0000"/>
     <use xlink:href="#m710599092b" x="819.125548" y="162.101231" style="fill: #ff0000; stroke: #ff0000"/>
     <use xlink:href="#m710599092b" x="825.837903" y="118.872308" style="fill: #ff0000; stroke: #ff0000"/>
     <use xlink:href="#m710599092b" x="809.494653" y="75.643385" style="fill: #ff0000; stroke: #ff0000"/>
     <use xlink:href="#m710599092b" x="838.550291" y="32.414462" style="fill: #ff0000; stroke: #ff0000"/>
    </g>
   </g>
   <g id="patch_16">
    <path d="M 317.68 572.776 
L 317.68 10.8 
" style="fill: none; stroke: #000000; stroke-width: 0.8; stroke-linejoin: miter; stroke-linecap: square"/>
   </g>
   <g id="patch_17">
    <path d="M 1116.869609 572.776 
L 1116.869609 10.8 
" style="fill: none; stroke: #000000; stroke-width: 0.8; stroke-linejoin: miter; stroke-linecap: square"/>
   </g>
   <g id="patch_18">
    <path d="M 317.68 572.776 
L 1116.869609 572.776 
" style="fill: none; stroke: #000000; stroke-width: 0.8; stroke-linejoin: miter; stroke-linecap: square"/>
   </g>
   <g id="patch_19">
    <path d="M 317.68 10.8 
L 1116.869609 10.8 
" style="fill: none; stroke: #000000; stroke-width: 0.8; stroke-linejoin: miter; stroke-linecap: square"/>
   </g>
   <g id="text_22">
    <!-- 4.892 -->
    <g transform="translate(593.418505 559.51982) scale(0.22 -0.22)">
     <defs>
      <path id="DejaVuSans-Bold-34" d="M 2356 3675 
L 1038 1722 
L 2356 1722 
L 2356 3675 
z
M 2156 4666 
L 3494 4666 
L 3494 1722 
L 4159 1722 
L 4159 850 
L 3494 850 
L 3494 0 
L 2356 0 
L 2356 850 
L 288 850 
L 288 1881 
L 2156 4666 
z
" transform="scale(0.015625)"/>
      <path id="DejaVuSans-Bold-2e" d="M 653 1209 
L 1778 1209 
L 1778 0 
L 653 0 
L 653 1209 
z
" transform="scale(0.015625)"/>
      <path id="DejaVuSans-Bold-38" d="M 2228 2088 
Q 1891 2088 1709 1903 
Q 1528 1719 1528 1375 
Q 1528 1031 1709 848 
Q 1891 666 2228 666 
Q 2563 666 2741 848 
Q 2919 1031 2919 1375 
Q 2919 1722 2741 1905 
Q 2563 2088 2228 2088 
z
M 1350 2484 
Q 925 2613 709 2878 
Q 494 3144 494 3541 
Q 494 4131 934 4440 
Q 1375 4750 2228 4750 
Q 3075 4750 3515 4442 
Q 3956 4134 3956 3541 
Q 3956 3144 3739 2878 
Q 3522 2613 3097 2484 
Q 3572 2353 3814 2058 
Q 4056 1763 4056 1313 
Q 4056 619 3595 264 
Q 3134 -91 2228 -91 
Q 1319 -91 855 264 
Q 391 619 391 1313 
Q 391 1763 633 2058 
Q 875 2353 1350 2484 
z
M 1631 3419 
Q 1631 3141 1786 2991 
Q 1941 2841 2228 2841 
Q 2509 2841 2662 2991 
Q 2816 3141 2816 3419 
Q 2816 3697 2662 3845 
Q 2509 3994 2228 3994 
Q 1941 3994 1786 3844 
Q 1631 3694 1631 3419 
z
" transform="scale(0.015625)"/>
      <path id="DejaVuSans-Bold-39" d="M 641 103 
L 641 966 
Q 928 831 1190 764 
Q 1453 697 1709 697 
Q 2247 697 2547 995 
Q 2847 1294 2900 1881 
Q 2688 1725 2447 1647 
Q 2206 1569 1925 1569 
Q 1209 1569 770 1986 
Q 331 2403 331 3084 
Q 331 3838 820 4291 
Q 1309 4744 2131 4744 
Q 3044 4744 3544 4128 
Q 4044 3513 4044 2388 
Q 4044 1231 3459 570 
Q 2875 -91 1856 -91 
Q 1528 -91 1228 -42 
Q 928 6 641 103 
z
M 2125 2350 
Q 2441 2350 2600 2554 
Q 2759 2759 2759 3169 
Q 2759 3575 2600 3781 
Q 2441 3988 2125 3988 
Q 1809 3988 1650 3781 
Q 1491 3575 1491 3169 
Q 1491 2759 1650 2554 
Q 1809 2350 2125 2350 
z
" transform="scale(0.015625)"/>
      <path id="DejaVuSans-Bold-32" d="M 1844 884 
L 3897 884 
L 3897 0 
L 506 0 
L 506 884 
L 2209 2388 
Q 2438 2594 2547 2791 
Q 2656 2988 2656 3200 
Q 2656 3528 2436 3728 
Q 2216 3928 1850 3928 
Q 1569 3928 1234 3808 
Q 900 3688 519 3450 
L 519 4475 
Q 925 4609 1322 4679 
Q 1719 4750 2100 4750 
Q 2938 4750 3402 4381 
Q 3866 4013 3866 3353 
Q 3866 2972 3669 2642 
Q 3472 2313 2841 1759 
L 1844 884 
z
" transform="scale(0.015625)"/>
     </defs>
     <use xlink:href="#DejaVuSans-Bold-34"/>
     <use xlink:href="#DejaVuSans-Bold-2e" transform="translate(69.580078 0)"/>
     <use xlink:href="#DejaVuSans-Bold-38" transform="translate(107.568359 0)"/>
     <use xlink:href="#DejaVuSans-Bold-39" transform="translate(177.148438 0)"/>
     <use xlink:href="#DejaVuSans-Bold-32" transform="translate(246.728516 0)"/>
    </g>
   </g>
   <g id="text_23">
    <!-- 41.742 -->
    <g transform="translate(702.133098 516.290897) scale(0.22 -0.22)">
     <defs>
      <path id="DejaVuSans-Bold-31" d="M 750 831 
L 1813 831 
L 1813 3847 
L 722 3622 
L 722 4441 
L 1806 4666 
L 2950 4666 
L 2950 831 
L 4013 831 
L 4013 0 
L 750 0 
L 750 831 
z
" transform="scale(0.015625)"/>
      <path id="DejaVuSans-Bold-37" d="M 428 4666 
L 3944 4666 
L 3944 3988 
L 2125 0 
L 953 0 
L 2675 3781 
L 428 3781 
L 428 4666 
z
" transform="scale(0.015625)"/>
     </defs>
     <use xlink:href="#DejaVuSans-Bold-34"/>
     <use xlink:href="#DejaVuSans-Bold-31" transform="translate(69.580078 0)"/>
     <use xlink:href="#DejaVuSans-Bold-2e" transform="translate(139.160156 0)"/>
     <use xlink:href="#DejaVuSans-Bold-37" transform="translate(177.148438 0)"/>
     <use xlink:href="#DejaVuSans-Bold-34" transform="translate(246.728516 0)"/>
     <use xlink:href="#DejaVuSans-Bold-32" transform="translate(316.308594 0)"/>
    </g>
   </g>
   <g id="text_24">
    <!-- 98.238 -->
    <g transform="translate(751.644112 473.061974) scale(0.22 -0.22)">
     <defs>
      <path id="DejaVuSans-Bold-33" d="M 2981 2516 
Q 3453 2394 3698 2092 
Q 3944 1791 3944 1325 
Q 3944 631 3412 270 
Q 2881 -91 1863 -91 
Q 1503 -91 1142 -33 
Q 781 25 428 141 
L 428 1069 
Q 766 900 1098 814 
Q 1431 728 1753 728 
Q 2231 728 2486 893 
Q 2741 1059 2741 1369 
Q 2741 1688 2480 1852 
Q 2219 2016 1709 2016 
L 1228 2016 
L 1228 2791 
L 1734 2791 
Q 2188 2791 2409 2933 
Q 2631 3075 2631 3366 
Q 2631 3634 2415 3781 
Q 2200 3928 1806 3928 
Q 1516 3928 1219 3862 
Q 922 3797 628 3669 
L 628 4550 
Q 984 4650 1334 4700 
Q 1684 4750 2022 4750 
Q 2931 4750 3382 4451 
Q 3834 4153 3834 3553 
Q 3834 3144 3618 2883 
Q 3403 2622 2981 2516 
z
" transform="scale(0.015625)"/>
     </defs>
     <use xlink:href="#DejaVuSans-Bold-39"/>
     <use xlink:href="#DejaVuSans-Bold-38" transform="translate(69.580078 0)"/>
     <use xlink:href="#DejaVuSans-Bold-2e" transform="translate(139.160156 0)"/>
     <use xlink:href="#DejaVuSans-Bold-32" transform="translate(177.148438 0)"/>
     <use xlink:href="#DejaVuSans-Bold-33" transform="translate(246.728516 0)"/>
     <use xlink:href="#DejaVuSans-Bold-38" transform="translate(316.308594 0)"/>
    </g>
   </g>
   <g id="text_25">
    <!-- 56.775 -->
    <g transform="translate(719.926946 429.83305) scale(0.22 -0.22)">
     <defs>
      <path id="DejaVuSans-Bold-35" d="M 678 4666 
L 3669 4666 
L 3669 3781 
L 1638 3781 
L 1638 3059 
Q 1775 3097 1914 3117 
Q 2053 3138 2203 3138 
Q 3056 3138 3531 2711 
Q 4006 2284 4006 1522 
Q 4006 766 3489 337 
Q 2972 -91 2053 -91 
Q 1656 -91 1267 -14 
Q 878 63 494 219 
L 494 1166 
Q 875 947 1217 837 
Q 1559 728 1863 728 
Q 2300 728 2551 942 
Q 2803 1156 2803 1522 
Q 2803 1891 2551 2103 
Q 2300 2316 1863 2316 
Q 1603 2316 1309 2248 
Q 1016 2181 678 2041 
L 678 4666 
z
" transform="scale(0.015625)"/>
      <path id="DejaVuSans-Bold-36" d="M 2316 2303 
Q 2000 2303 1842 2098 
Q 1684 1894 1684 1484 
Q 1684 1075 1842 870 
Q 2000 666 2316 666 
Q 2634 666 2792 870 
Q 2950 1075 2950 1484 
Q 2950 1894 2792 2098 
Q 2634 2303 2316 2303 
z
M 3803 4544 
L 3803 3681 
Q 3506 3822 3243 3889 
Q 2981 3956 2731 3956 
Q 2194 3956 1894 3657 
Q 1594 3359 1544 2772 
Q 1750 2925 1990 3001 
Q 2231 3078 2516 3078 
Q 3231 3078 3670 2659 
Q 4109 2241 4109 1563 
Q 4109 813 3618 361 
Q 3128 -91 2303 -91 
Q 1394 -91 895 523 
Q 397 1138 397 2266 
Q 397 3422 980 4083 
Q 1563 4744 2578 4744 
Q 2900 4744 3203 4694 
Q 3506 4644 3803 4544 
z
" transform="scale(0.015625)"/>
     </defs>
     <use xlink:href="#DejaVuSans-Bold-35"/>
     <use xlink:href="#DejaVuSans-Bold-36" transform="translate(69.580078 0)"/>
     <use xlink:href="#DejaVuSans-Bold-2e" transform="translate(139.160156 0)"/>
     <use xlink:href="#DejaVuSans-Bold-37" transform="translate(177.148438 0)"/>
     <use xlink:href="#DejaVuSans-Bold-37" transform="translate(246.728516 0)"/>
     <use xlink:href="#DejaVuSans-Bold-35" transform="translate(316.308594 0)"/>
    </g>
   </g>
   <g id="text_26">
    <!-- 154.523 -->
    <g transform="translate(762.538646 386.604127) scale(0.22 -0.22)">
     <use xlink:href="#DejaVuSans-Bold-31"/>
     <use xlink:href="#DejaVuSans-Bold-35" transform="translate(69.580078 0)"/>
     <use xlink:href="#DejaVuSans-Bold-34" transform="translate(139.160156 0)"/>
     <use xlink:href="#DejaVuSans-Bold-2e" transform="translate(208.740234 0)"/>
     <use xlink:href="#DejaVuSans-Bold-35" transform="translate(246.728516 0)"/>
     <use xlink:href="#DejaVuSans-Bold-32" transform="translate(316.308594 0)"/>
     <use xlink:href="#DejaVuSans-Bold-33" transform="translate(385.888672 0)"/>
    </g>
   </g>
   <g id="text_27">
    <!-- 9.832 -->
    <g transform="translate(633.801091 343.375204) scale(0.22 -0.22)">
     <use xlink:href="#DejaVuSans-Bold-39"/>
     <use xlink:href="#DejaVuSans-Bold-2e" transform="translate(69.580078 0)"/>
     <use xlink:href="#DejaVuSans-Bold-38" transform="translate(107.568359 0)"/>
     <use xlink:href="#DejaVuSans-Bold-33" transform="translate(177.148438 0)"/>
     <use xlink:href="#DejaVuSans-Bold-32" transform="translate(246.728516 0)"/>
    </g>
   </g>
   <g id="text_28">
    <!-- 270.534 -->
    <g transform="translate(794.936332 300.146281) scale(0.22 -0.22)">
     <defs>
      <path id="DejaVuSans-Bold-30" d="M 2944 2338 
Q 2944 3213 2780 3570 
Q 2616 3928 2228 3928 
Q 1841 3928 1675 3570 
Q 1509 3213 1509 2338 
Q 1509 1453 1675 1090 
Q 1841 728 2228 728 
Q 2613 728 2778 1090 
Q 2944 1453 2944 2338 
z
M 4147 2328 
Q 4147 1169 3647 539 
Q 3147 -91 2228 -91 
Q 1306 -91 806 539 
Q 306 1169 306 2328 
Q 306 3491 806 4120 
Q 1306 4750 2228 4750 
Q 3147 4750 3647 4120 
Q 4147 3491 4147 2328 
z
" transform="scale(0.015625)"/>
     </defs>
     <use xlink:href="#DejaVuSans-Bold-32"/>
     <use xlink:href="#DejaVuSans-Bold-37" transform="translate(69.580078 0)"/>
     <use xlink:href="#DejaVuSans-Bold-30" transform="translate(139.160156 0)"/>
     <use xlink:href="#DejaVuSans-Bold-2e" transform="translate(208.740234 0)"/>
     <use xlink:href="#DejaVuSans-Bold-35" transform="translate(246.728516 0)"/>
     <use xlink:href="#DejaVuSans-Bold-33" transform="translate(316.308594 0)"/>
     <use xlink:href="#DejaVuSans-Bold-34" transform="translate(385.888672 0)"/>
    </g>
   </g>
   <g id="text_29">
    <!-- 203.744 -->
    <g transform="translate(778.534613 256.917358) scale(0.22 -0.22)">
     <use xlink:href="#DejaVuSans-Bold-32"/>
     <use xlink:href="#DejaVuSans-Bold-30" transform="translate(69.580078 0)"/>
     <use xlink:href="#DejaVuSans-Bold-33" transform="translate(139.160156 0)"/>
     <use xlink:href="#DejaVuSans-Bold-2e" transform="translate(208.740234 0)"/>
     <use xlink:href="#DejaVuSans-Bold-37" transform="translate(246.728516 0)"/>
     <use xlink:href="#DejaVuSans-Bold-34" transform="translate(316.308594 0)"/>
     <use xlink:href="#DejaVuSans-Bold-34" transform="translate(385.888672 0)"/>
    </g>
   </g>
   <g id="text_30">
    <!-- 114.125 -->
    <g transform="translate(745.008374 213.688435) scale(0.22 -0.22)">
     <use xlink:href="#DejaVuSans-Bold-31"/>
     <use xlink:href="#DejaVuSans-Bold-31" transform="translate(69.580078 0)"/>
     <use xlink:href="#DejaVuSans-Bold-34" transform="translate(139.160156 0)"/>
     <use xlink:href="#DejaVuSans-Bold-2e" transform="translate(208.740234 0)"/>
     <use xlink:href="#DejaVuSans-Bold-31" transform="translate(246.728516 0)"/>
     <use xlink:href="#DejaVuSans-Bold-32" transform="translate(316.308594 0)"/>
     <use xlink:href="#DejaVuSans-Bold-35" transform="translate(385.888672 0)"/>
    </g>
   </g>
   <g id="text_31">
    <!-- 56.953 -->
    <g transform="translate(720.107245 170.459512) scale(0.22 -0.22)">
     <use xlink:href="#DejaVuSans-Bold-35"/>
     <use xlink:href="#DejaVuSans-Bold-36" transform="translate(69.580078 0)"/>
     <use xlink:href="#DejaVuSans-Bold-2e" transform="translate(139.160156 0)"/>
     <use xlink:href="#DejaVuSans-Bold-39" transform="translate(177.148438 0)"/>
     <use xlink:href="#DejaVuSans-Bold-35" transform="translate(246.728516 0)"/>
     <use xlink:href="#DejaVuSans-Bold-33" transform="translate(316.308594 0)"/>
    </g>
   </g>
   <g id="text_32">
    <!-- 64.006 -->
    <g transform="translate(726.861453 127.230589) scale(0.22 -0.22)">
     <use xlink:href="#DejaVuSans-Bold-36"/>
     <use xlink:href="#DejaVuSans-Bold-34" transform="translate(69.580078 0)"/>
     <use xlink:href="#DejaVuSans-Bold-2e" transform="translate(139.160156 0)"/>
     <use xlink:href="#DejaVuSans-Bold-30" transform="translate(177.148438 0)"/>
     <use xlink:href="#DejaVuSans-Bold-30" transform="translate(246.728516 0)"/>
     <use xlink:href="#DejaVuSans-Bold-36" transform="translate(316.308594 0)"/>
    </g>
   </g>
   <g id="text_33">
    <!-- 48.226 -->
    <g transform="translate(710.486321 84.001666) scale(0.22 -0.22)">
     <use xlink:href="#DejaVuSans-Bold-34"/>
     <use xlink:href="#DejaVuSans-Bold-38" transform="translate(69.580078 0)"/>
     <use xlink:href="#DejaVuSans-Bold-2e" transform="translate(139.160156 0)"/>
     <use xlink:href="#DejaVuSans-Bold-32" transform="translate(177.148438 0)"/>
     <use xlink:href="#DejaVuSans-Bold-32" transform="translate(246.728516 0)"/>
     <use xlink:href="#DejaVuSans-Bold-36" transform="translate(316.308594 0)"/>
    </g>
   </g>
   <g id="text_34">
    <!-- 79.629 -->
    <g transform="translate(739.495198 40.772743) scale(0.22 -0.22)">
     <use xlink:href="#DejaVuSans-Bold-37"/>
     <use xlink:href="#DejaVuSans-Bold-39" transform="translate(69.580078 0)"/>
     <use xlink:href="#DejaVuSans-Bold-2e" transform="translate(139.160156 0)"/>
     <use xlink:href="#DejaVuSans-Bold-36" transform="translate(177.148438 0)"/>
     <use xlink:href="#DejaVuSans-Bold-32" transform="translate(246.728516 0)"/>
     <use xlink:href="#DejaVuSans-Bold-39" transform="translate(316.308594 0)"/>
    </g>
   </g>
   <g id="text_35">
    <!-- ±0.103 -->
    <g style="fill: #ff0000" transform="translate(679.943857 558.759976) scale(0.2 -0.2)">
     <defs>
      <path id="DejaVuSans-b1" d="M 2944 4013 
L 2944 2803 
L 4684 2803 
L 4684 2272 
L 2944 2272 
L 2944 1063 
L 2419 1063 
L 2419 2272 
L 678 2272 
L 678 2803 
L 2419 2803 
L 2419 4013 
L 2944 4013 
z
M 678 531 
L 4684 531 
L 4684 0 
L 678 0 
L 678 531 
z
" transform="scale(0.015625)"/>
      <path id="DejaVuSans-2e" d="M 684 794 
L 1344 794 
L 1344 0 
L 684 0 
L 684 794 
z
" transform="scale(0.015625)"/>
     </defs>
     <use xlink:href="#DejaVuSans-b1"/>
     <use xlink:href="#DejaVuSans-30" transform="translate(83.789062 0)"/>
     <use xlink:href="#DejaVuSans-2e" transform="translate(147.412109 0)"/>
     <use xlink:href="#DejaVuSans-31" transform="translate(179.199219 0)"/>
     <use xlink:href="#DejaVuSans-30" transform="translate(242.822266 0)"/>
     <use xlink:href="#DejaVuSans-33" transform="translate(306.445312 0)"/>
    </g>
   </g>
   <g id="text_36">
    <!-- ±0.906 -->
    <g style="fill: #ff0000" transform="translate(803.997895 515.531053) scale(0.2 -0.2)">
     <defs>
      <path id="DejaVuSans-39" d="M 703 97 
L 703 672 
Q 941 559 1184 500 
Q 1428 441 1663 441 
Q 2288 441 2617 861 
Q 2947 1281 2994 2138 
Q 2813 1869 2534 1725 
Q 2256 1581 1919 1581 
Q 1219 1581 811 2004 
Q 403 2428 403 3163 
Q 403 3881 828 4315 
Q 1253 4750 1959 4750 
Q 2769 4750 3195 4129 
Q 3622 3509 3622 2328 
Q 3622 1225 3098 567 
Q 2575 -91 1691 -91 
Q 1453 -91 1209 -44 
Q 966 3 703 97 
z
M 1959 2075 
Q 2384 2075 2632 2365 
Q 2881 2656 2881 3163 
Q 2881 3666 2632 3958 
Q 2384 4250 1959 4250 
Q 1534 4250 1286 3958 
Q 1038 3666 1038 3163 
Q 1038 2656 1286 2365 
Q 1534 2075 1959 2075 
z
" transform="scale(0.015625)"/>
      <path id="DejaVuSans-36" d="M 2113 2584 
Q 1688 2584 1439 2293 
Q 1191 2003 1191 1497 
Q 1191 994 1439 701 
Q 1688 409 2113 409 
Q 2538 409 2786 701 
Q 3034 994 3034 1497 
Q 3034 2003 2786 2293 
Q 2538 2584 2113 2584 
z
M 3366 4563 
L 3366 3988 
Q 3128 4100 2886 4159 
Q 2644 4219 2406 4219 
Q 1781 4219 1451 3797 
Q 1122 3375 1075 2522 
Q 1259 2794 1537 2939 
Q 1816 3084 2150 3084 
Q 2853 3084 3261 2657 
Q 3669 2231 3669 1497 
Q 3669 778 3244 343 
Q 2819 -91 2113 -91 
Q 1303 -91 875 529 
Q 447 1150 447 2328 
Q 447 3434 972 4092 
Q 1497 4750 2381 4750 
Q 2619 4750 2861 4703 
Q 3103 4656 3366 4563 
z
" transform="scale(0.015625)"/>
     </defs>
     <use xlink:href="#DejaVuSans-b1"/>
     <use xlink:href="#DejaVuSans-30" transform="translate(83.789062 0)"/>
     <use xlink:href="#DejaVuSans-2e" transform="translate(147.412109 0)"/>
     <use xlink:href="#DejaVuSans-39" transform="translate(179.199219 0)"/>
     <use xlink:href="#DejaVuSans-30" transform="translate(242.822266 0)"/>
     <use xlink:href="#DejaVuSans-36" transform="translate(306.445312 0)"/>
    </g>
   </g>
   <g id="text_37">
    <!-- ±2.184 -->
    <g style="fill: #ff0000" transform="translate(853.539087 472.30213) scale(0.2 -0.2)">
     <defs>
      <path id="DejaVuSans-38" d="M 2034 2216 
Q 1584 2216 1326 1975 
Q 1069 1734 1069 1313 
Q 1069 891 1326 650 
Q 1584 409 2034 409 
Q 2484 409 2743 651 
Q 3003 894 3003 1313 
Q 3003 1734 2745 1975 
Q 2488 2216 2034 2216 
z
M 1403 2484 
Q 997 2584 770 2862 
Q 544 3141 544 3541 
Q 544 4100 942 4425 
Q 1341 4750 2034 4750 
Q 2731 4750 3128 4425 
Q 3525 4100 3525 3541 
Q 3525 3141 3298 2862 
Q 3072 2584 2669 2484 
Q 3125 2378 3379 2068 
Q 3634 1759 3634 1313 
Q 3634 634 3220 271 
Q 2806 -91 2034 -91 
Q 1263 -91 848 271 
Q 434 634 434 1313 
Q 434 1759 690 2068 
Q 947 2378 1403 2484 
z
M 1172 3481 
Q 1172 3119 1398 2916 
Q 1625 2713 2034 2713 
Q 2441 2713 2670 2916 
Q 2900 3119 2900 3481 
Q 2900 3844 2670 4047 
Q 2441 4250 2034 4250 
Q 1625 4250 1398 4047 
Q 1172 3844 1172 3481 
z
" transform="scale(0.015625)"/>
     </defs>
     <use xlink:href="#DejaVuSans-b1"/>
     <use xlink:href="#DejaVuSans-32" transform="translate(83.789062 0)"/>
     <use xlink:href="#DejaVuSans-2e" transform="translate(147.412109 0)"/>
     <use xlink:href="#DejaVuSans-31" transform="translate(179.199219 0)"/>
     <use xlink:href="#DejaVuSans-38" transform="translate(242.822266 0)"/>
     <use xlink:href="#DejaVuSans-34" transform="translate(306.445312 0)"/>
    </g>
   </g>
   <g id="text_38">
    <!-- ±1.249 -->
    <g style="fill: #ff0000" transform="translate(821.808438 429.073207) scale(0.2 -0.2)">
     <use xlink:href="#DejaVuSans-b1"/>
     <use xlink:href="#DejaVuSans-31" transform="translate(83.789062 0)"/>
     <use xlink:href="#DejaVuSans-2e" transform="translate(147.412109 0)"/>
     <use xlink:href="#DejaVuSans-32" transform="translate(179.199219 0)"/>
     <use xlink:href="#DejaVuSans-34" transform="translate(242.822266 0)"/>
     <use xlink:href="#DejaVuSans-39" transform="translate(306.445312 0)"/>
    </g>
   </g>
   <g id="text_39">
    <!-- ±3.403 -->
    <g style="fill: #ff0000" transform="translate(879.72926 385.844284) scale(0.2 -0.2)">
     <use xlink:href="#DejaVuSans-b1"/>
     <use xlink:href="#DejaVuSans-33" transform="translate(83.789062 0)"/>
     <use xlink:href="#DejaVuSans-2e" transform="translate(147.412109 0)"/>
     <use xlink:href="#DejaVuSans-34" transform="translate(179.199219 0)"/>
     <use xlink:href="#DejaVuSans-30" transform="translate(242.822266 0)"/>
     <use xlink:href="#DejaVuSans-33" transform="translate(306.445312 0)"/>
    </g>
   </g>
   <g id="text_40">
    <!-- ±0.206 -->
    <g style="fill: #ff0000" transform="translate(720.316582 342.615361) scale(0.2 -0.2)">
     <use xlink:href="#DejaVuSans-b1"/>
     <use xlink:href="#DejaVuSans-30" transform="translate(83.789062 0)"/>
     <use xlink:href="#DejaVuSans-2e" transform="translate(147.412109 0)"/>
     <use xlink:href="#DejaVuSans-32" transform="translate(179.199219 0)"/>
     <use xlink:href="#DejaVuSans-30" transform="translate(242.822266 0)"/>
     <use xlink:href="#DejaVuSans-36" transform="translate(306.445312 0)"/>
    </g>
   </g>
   <g id="text_41">
    <!-- ±6.023 -->
    <g style="fill: #ff0000" transform="translate(912.140304 299.386438) scale(0.2 -0.2)">
     <use xlink:href="#DejaVuSans-b1"/>
     <use xlink:href="#DejaVuSans-36" transform="translate(83.789062 0)"/>
     <use xlink:href="#DejaVuSans-2e" transform="translate(147.412109 0)"/>
     <use xlink:href="#DejaVuSans-30" transform="translate(179.199219 0)"/>
     <use xlink:href="#DejaVuSans-32" transform="translate(242.822266 0)"/>
     <use xlink:href="#DejaVuSans-33" transform="translate(306.445312 0)"/>
    </g>
   </g>
   <g id="text_42">
    <!-- ±4.522 -->
    <g style="fill: #ff0000" transform="translate(895.73485 256.157514) scale(0.2 -0.2)">
     <defs>
      <path id="DejaVuSans-35" d="M 691 4666 
L 3169 4666 
L 3169 4134 
L 1269 4134 
L 1269 2991 
Q 1406 3038 1543 3061 
Q 1681 3084 1819 3084 
Q 2600 3084 3056 2656 
Q 3513 2228 3513 1497 
Q 3513 744 3044 326 
Q 2575 -91 1722 -91 
Q 1428 -91 1123 -41 
Q 819 9 494 109 
L 494 744 
Q 775 591 1075 516 
Q 1375 441 1709 441 
Q 2250 441 2565 725 
Q 2881 1009 2881 1497 
Q 2881 1984 2565 2268 
Q 2250 2553 1709 2553 
Q 1456 2553 1204 2497 
Q 953 2441 691 2322 
L 691 4666 
z
" transform="scale(0.015625)"/>
     </defs>
     <use xlink:href="#DejaVuSans-b1"/>
     <use xlink:href="#DejaVuSans-34" transform="translate(83.789062 0)"/>
     <use xlink:href="#DejaVuSans-2e" transform="translate(147.412109 0)"/>
     <use xlink:href="#DejaVuSans-35" transform="translate(179.199219 0)"/>
     <use xlink:href="#DejaVuSans-32" transform="translate(242.822266 0)"/>
     <use xlink:href="#DejaVuSans-32" transform="translate(306.445312 0)"/>
    </g>
   </g>
   <g id="text_43">
    <!-- ±2.574 -->
    <g style="fill: #ff0000" transform="translate(862.228815 212.928591) scale(0.2 -0.2)">
     <defs>
      <path id="DejaVuSans-37" d="M 525 4666 
L 3525 4666 
L 3525 4397 
L 1831 0 
L 1172 0 
L 2766 4134 
L 525 4134 
L 525 4666 
z
" transform="scale(0.015625)"/>
     </defs>
     <use xlink:href="#DejaVuSans-b1"/>
     <use xlink:href="#DejaVuSans-32" transform="translate(83.789062 0)"/>
     <use xlink:href="#DejaVuSans-2e" transform="translate(147.412109 0)"/>
     <use xlink:href="#DejaVuSans-35" transform="translate(179.199219 0)"/>
     <use xlink:href="#DejaVuSans-37" transform="translate(242.822266 0)"/>
     <use xlink:href="#DejaVuSans-34" transform="translate(306.445312 0)"/>
    </g>
   </g>
   <g id="text_44">
    <!-- ±1.211 -->
    <g style="fill: #ff0000" transform="translate(821.947926 169.699668) scale(0.2 -0.2)">
     <use xlink:href="#DejaVuSans-b1"/>
     <use xlink:href="#DejaVuSans-31" transform="translate(83.789062 0)"/>
     <use xlink:href="#DejaVuSans-2e" transform="translate(147.412109 0)"/>
     <use xlink:href="#DejaVuSans-32" transform="translate(179.199219 0)"/>
     <use xlink:href="#DejaVuSans-31" transform="translate(242.822266 0)"/>
     <use xlink:href="#DejaVuSans-31" transform="translate(306.445312 0)"/>
    </g>
   </g>
   <g id="text_45">
    <!-- ±1.314 -->
    <g style="fill: #ff0000" transform="translate(828.660281 126.470745) scale(0.2 -0.2)">
     <use xlink:href="#DejaVuSans-b1"/>
     <use xlink:href="#DejaVuSans-31" transform="translate(83.789062 0)"/>
     <use xlink:href="#DejaVuSans-2e" transform="translate(147.412109 0)"/>
     <use xlink:href="#DejaVuSans-33" transform="translate(179.199219 0)"/>
     <use xlink:href="#DejaVuSans-31" transform="translate(242.822266 0)"/>
     <use xlink:href="#DejaVuSans-34" transform="translate(306.445312 0)"/>
    </g>
   </g>
   <g id="text_46">
    <!-- ±1.017 -->
    <g style="fill: #ff0000" transform="translate(812.317031 83.241822) scale(0.2 -0.2)">
     <use xlink:href="#DejaVuSans-b1"/>
     <use xlink:href="#DejaVuSans-31" transform="translate(83.789062 0)"/>
     <use xlink:href="#DejaVuSans-2e" transform="translate(147.412109 0)"/>
     <use xlink:href="#DejaVuSans-30" transform="translate(179.199219 0)"/>
     <use xlink:href="#DejaVuSans-31" transform="translate(242.822266 0)"/>
     <use xlink:href="#DejaVuSans-37" transform="translate(306.445312 0)"/>
    </g>
   </g>
   <g id="text_47">
    <!-- ±1.746 -->
    <g style="fill: #ff0000" transform="translate(841.372668 40.012899) scale(0.2 -0.2)">
     <use xlink:href="#DejaVuSans-b1"/>
     <use xlink:href="#DejaVuSans-31" transform="translate(83.789062 0)"/>
     <use xlink:href="#DejaVuSans-2e" transform="translate(147.412109 0)"/>
     <use xlink:href="#DejaVuSans-37" transform="translate(179.199219 0)"/>
     <use xlink:href="#DejaVuSans-34" transform="translate(242.822266 0)"/>
     <use xlink:href="#DejaVuSans-36" transform="translate(306.445312 0)"/>
    </g>
   </g>
  </g>
 </g>
 <defs>
  <clipPath id="p6fd185ee39">
   <rect x="317.68" y="10.8" width="799.189609" height="561.976"/>
  </clipPath>
 </defs>
</svg>
